<?xml version="1.0" encoding="UTF-8" standalone="no"?>
<!DOCTYPE svg PUBLIC "-//W3C//DTD SVG 1.1//EN"
 "http://www.w3.org/Graphics/SVG/1.1/DTD/svg11.dtd">
<!-- Generated by graphviz version 2.34.0 (20140110.0949)
 -->
<!-- Title: PDF09a0f7aae0e22b5d80c7950890f3f738 Pages: 1 -->
<svg width="146pt" height="105pt"
 viewBox="0.00 0.00 145.88 105.31" xmlns="http://www.w3.org/2000/svg" xmlns:xlink="http://www.w3.org/1999/xlink">
<g id="graph0" class="graph" transform="scale(1 1) rotate(0) translate(4 101.306)">
<title>PDF09a0f7aae0e22b5d80c7950890f3f738</title>
<polygon fill="white" stroke="white" points="-4,4 -4,-101.306 141.88,-101.306 141.88,4 -4,4"/>
<!-- 0 -->
<g id="node1" class="node"><title>0</title>
<ellipse fill="none" stroke="red" cx="88.0804" cy="-48.2237" rx="0.5" ry="0.5"/>
</g>
<!-- 25 -->
<g id="node2" class="node"><title>25</title>
<ellipse fill="none" stroke="red" cx="110.963" cy="-90.2012" rx="0.5" ry="0.5"/>
</g>
<!-- 0&#45;&#45;25 -->
<g id="edge1" class="edge"><title>0&#45;&#45;25</title>
<path fill="none" stroke="black" stroke-width="0.1" d="M88.3373,-48.6952C90.6549,-52.9466 107.928,-84.6335 110.613,-89.5586"/>
</g>
<!-- 26 -->
<g id="node3" class="node"><title>26</title>
<ellipse fill="none" stroke="red" cx="100.729" cy="-71.5601" rx="0.5" ry="0.5"/>
</g>
<!-- 0&#45;&#45;26 -->
<g id="edge2" class="edge"><title>0&#45;&#45;26</title>
<path fill="none" stroke="black" stroke-width="0.1" d="M87.3593,-48.6364C72.8812,-57.3835 84.7669,-79.304 100.001,-71.9334"/>
</g>
<!-- 0&#45;&#45;26 -->
<g id="edge148" class="edge"><title>0&#45;&#45;26</title>
<path fill="none" stroke="black" stroke-width="0.1" d="M88.8197,-47.8449C104.052,-40.489 115.93,-62.4136 101.439,-71.154"/>
</g>
<!-- 0&#45;&#45;26 -->
<g id="edge150" class="edge"><title>0&#45;&#45;26</title>
<path fill="none" stroke="black" stroke-width="0.1" d="M88.393,-48.8006C90.1581,-52.0573 98.8551,-68.1033 100.47,-71.0834"/>
</g>
<!-- 10 -->
<g id="node4" class="node"><title>10</title>
<ellipse fill="none" stroke="red" cx="113.934" cy="-76.3462" rx="0.5" ry="0.5"/>
</g>
<!-- 0&#45;&#45;10 -->
<g id="edge111" class="edge"><title>0&#45;&#45;10</title>
<path fill="none" stroke="black" stroke-width="0.1" d="M88.7195,-48.9189C92.3275,-52.8435 110.105,-72.1805 113.406,-75.7717"/>
</g>
<!-- 16 -->
<g id="node5" class="node"><title>16</title>
<ellipse fill="none" stroke="red" cx="72.9889" cy="-59.6943" rx="0.5" ry="0.5"/>
</g>
<!-- 0&#45;&#45;16 -->
<g id="edge125" class="edge"><title>0&#45;&#45;16</title>
<path fill="none" stroke="black" stroke-width="0.1" d="M87.4319,-48.7166C84.9044,-50.6377 75.7421,-57.6017 73.491,-59.3127"/>
</g>
<!-- 36 -->
<g id="node6" class="node"><title>36</title>
<ellipse fill="none" stroke="red" cx="94.6256" cy="-85.2779" rx="0.5" ry="0.5"/>
</g>
<!-- 0&#45;&#45;36 -->
<g id="edge30" class="edge"><title>0&#45;&#45;36</title>
<path fill="none" stroke="black" stroke-width="0.1" d="M88.2422,-49.1397C89.1556,-54.3108 93.656,-79.7892 94.4919,-84.521"/>
</g>
<!-- 13 -->
<g id="node7" class="node"><title>13</title>
<ellipse fill="none" stroke="red" cx="86.1138" cy="-66.3309" rx="0.5" ry="0.5"/>
</g>
<!-- 0&#45;&#45;13 -->
<g id="edge118" class="edge"><title>0&#45;&#45;13</title>
<path fill="none" stroke="black" stroke-width="0.1" d="M87.9959,-49.0018C87.6665,-52.0344 86.4726,-63.0276 86.1792,-65.7285"/>
</g>
<!-- 6 -->
<g id="node8" class="node"><title>6</title>
<ellipse fill="none" stroke="red" cx="106.782" cy="-81.3153" rx="0.5" ry="0.5"/>
</g>
<!-- 0&#45;&#45;6 -->
<g id="edge105" class="edge"><title>0&#45;&#45;6</title>
<path fill="none" stroke="black" stroke-width="0.1" d="M88.5426,-49.0417C91.1525,-53.6598 104.011,-76.4135 106.399,-80.6393"/>
</g>
<!-- 27 -->
<g id="node9" class="node"><title>27</title>
<ellipse fill="none" stroke="red" cx="70.4038" cy="-48.1878" rx="0.5" ry="0.5"/>
</g>
<!-- 0&#45;&#45;27 -->
<g id="edge8" class="edge"><title>0&#45;&#45;27</title>
<path fill="none" stroke="black" stroke-width="0.1" d="M87.3208,-48.2222C84.3603,-48.2162 73.6286,-48.1944 70.9919,-48.189"/>
</g>
<!-- 37 -->
<g id="node10" class="node"><title>37</title>
<ellipse fill="none" stroke="red" cx="82.9195" cy="-37.6272" rx="0.5" ry="0.5"/>
</g>
<!-- 0&#45;&#45;37 -->
<g id="edge32" class="edge"><title>0&#45;&#45;37</title>
<path fill="none" stroke="black" stroke-width="0.1" d="M87.8586,-47.7684C87.056,-46.1205 84.297,-40.4557 83.2906,-38.3893"/>
</g>
<!-- 64 -->
<g id="node11" class="node"><title>64</title>
<ellipse fill="none" stroke="red" cx="47.8889" cy="-58.7989" rx="0.5" ry="0.5"/>
</g>
<!-- 0&#45;&#45;64 -->
<g id="edge93" class="edge"><title>0&#45;&#45;64</title>
<path fill="none" stroke="black" stroke-width="0.1" d="M87.3828,-48.4073C82.5461,-49.6799 54.04,-57.1804 48.7376,-58.5756"/>
</g>
<!-- 34 -->
<g id="node12" class="node"><title>34</title>
<ellipse fill="none" stroke="red" cx="56.4831" cy="-37.039" rx="0.5" ry="0.5"/>
</g>
<!-- 0&#45;&#45;34 -->
<g id="edge24" class="edge"><title>0&#45;&#45;34</title>
<path fill="none" stroke="black" stroke-width="0.1" d="M87.2993,-47.9473C82.8898,-46.3864 61.1635,-38.6958 57.1286,-37.2675"/>
</g>
<!-- 32 -->
<g id="node13" class="node"><title>32</title>
<ellipse fill="none" stroke="red" cx="63.2113" cy="-67.807" rx="0.5" ry="0.5"/>
</g>
<!-- 0&#45;&#45;32 -->
<g id="edge22" class="edge"><title>0&#45;&#45;32</title>
<path fill="none" stroke="black" stroke-width="0.1" d="M87.4656,-48.7078C83.995,-51.4408 66.8951,-64.9062 63.7193,-67.4069"/>
</g>
<!-- 28 -->
<g id="node14" class="node"><title>28</title>
<ellipse fill="none" stroke="red" cx="60.0068" cy="-49.483" rx="0.5" ry="0.5"/>
</g>
<!-- 0&#45;&#45;28 -->
<g id="edge14" class="edge"><title>0&#45;&#45;28</title>
<path fill="none" stroke="black" stroke-width="0.1" d="M87.3864,-48.2549C83.4686,-48.4306 64.1652,-49.2965 60.5803,-49.4573"/>
</g>
<!-- 39 -->
<g id="node15" class="node"><title>39</title>
<ellipse fill="none" stroke="red" cx="59.9301" cy="-61.7945" rx="0.5" ry="0.5"/>
</g>
<!-- 0&#45;&#45;39 -->
<g id="edge40" class="edge"><title>0&#45;&#45;39</title>
<path fill="none" stroke="black" stroke-width="0.1" d="M87.3845,-48.5592C83.456,-50.4531 64.0999,-59.7843 60.5052,-61.5173"/>
</g>
<!-- 29 -->
<g id="node16" class="node"><title>29</title>
<ellipse fill="none" stroke="red" cx="50.2264" cy="-64.8159" rx="0.5" ry="0.5"/>
</g>
<!-- 0&#45;&#45;29 -->
<g id="edge17" class="edge"><title>0&#45;&#45;29</title>
<path fill="none" stroke="black" stroke-width="0.1" d="M87.4233,-48.5117C82.868,-50.5084 56.0198,-62.2766 51.0258,-64.4655"/>
</g>
<!-- 30 -->
<g id="node17" class="node"><title>30</title>
<ellipse fill="none" stroke="red" cx="74.2104" cy="-69.8465" rx="0.5" ry="0.5"/>
</g>
<!-- 0&#45;&#45;30 -->
<g id="edge18" class="edge"><title>0&#45;&#45;30</title>
<path fill="none" stroke="black" stroke-width="0.1" d="M87.7375,-48.7582C85.8019,-51.7758 76.265,-66.6436 74.4938,-69.4048"/>
</g>
<!-- 31 -->
<g id="node18" class="node"><title>31</title>
<ellipse fill="none" stroke="red" cx="62.225" cy="-79.4374" rx="0.5" ry="0.5"/>
</g>
<!-- 0&#45;&#45;31 -->
<g id="edge21" class="edge"><title>0&#45;&#45;31</title>
<path fill="none" stroke="black" stroke-width="0.1" d="M87.4412,-48.9953C83.833,-53.3513 66.0549,-74.8138 62.7532,-78.7997"/>
</g>
<!-- 33 -->
<g id="node19" class="node"><title>33</title>
<ellipse fill="none" stroke="red" cx="137.285" cy="-52.1963" rx="0.5" ry="0.5"/>
</g>
<!-- 0&#45;&#45;33 -->
<g id="edge23" class="edge"><title>0&#45;&#45;33</title>
<path fill="none" stroke="black" stroke-width="0.1" d="M88.633,-48.2683C93.6164,-48.6707 130.759,-51.6694 136.532,-52.1355"/>
</g>
<!-- 41 -->
<g id="node20" class="node"><title>41</title>
<ellipse fill="none" stroke="red" cx="48.0919" cy="-31.2411" rx="0.5" ry="0.5"/>
</g>
<!-- 0&#45;&#45;41 -->
<g id="edge46" class="edge"><title>0&#45;&#45;41</title>
<path fill="none" stroke="black" stroke-width="0.1" d="M87.3863,-47.929C82.5741,-45.8853 54.2119,-33.8402 48.9363,-31.5997"/>
</g>
<!-- 45 -->
<g id="node21" class="node"><title>45</title>
<ellipse fill="none" stroke="red" cx="44.7016" cy="-37.544" rx="0.5" ry="0.5"/>
</g>
<!-- 0&#45;&#45;45 -->
<g id="edge53" class="edge"><title>0&#45;&#45;45</title>
<path fill="none" stroke="black" stroke-width="0.1" d="M87.5932,-48.1038C83.1998,-47.0221 50.4551,-38.9605 45.3656,-37.7075"/>
</g>
<!-- 35 -->
<g id="node22" class="node"><title>35</title>
<ellipse fill="none" stroke="red" cx="120.509" cy="-66.099" rx="0.5" ry="0.5"/>
</g>
<!-- 0&#45;&#45;35 -->
<g id="edge27" class="edge"><title>0&#45;&#45;35</title>
<path fill="none" stroke="black" stroke-width="0.1" d="M88.882,-48.6656C93.4076,-51.1602 115.706,-63.4512 119.847,-65.7339"/>
</g>
<!-- 24 -->
<g id="node23" class="node"><title>24</title>
<ellipse fill="none" stroke="red" cx="132.284" cy="-66.0312" rx="0.5" ry="0.5"/>
</g>
<!-- 0&#45;&#45;24 -->
<g id="edge146" class="edge"><title>0&#45;&#45;24</title>
<path fill="none" stroke="black" stroke-width="0.1" d="M87.802,-49.007C82.8059,-65.2107 124.333,-81.9353 131.947,-66.7772"/>
</g>
<!-- 0&#45;&#45;24 -->
<g id="edge147" class="edge"><title>0&#45;&#45;24</title>
<path fill="none" stroke="black" stroke-width="0.1" d="M88.4228,-47.4662C96.0542,-32.3242 137.578,-49.0567 132.559,-65.2601"/>
</g>
<!-- 0&#45;&#45;24 -->
<g id="edge149" class="edge"><title>0&#45;&#45;24</title>
<path fill="none" stroke="black" stroke-width="0.1" d="M88.5768,-48.4237C93.0538,-50.2273 126.421,-63.6693 131.607,-65.7586"/>
</g>
<!-- 14 -->
<g id="node24" class="node"><title>14</title>
<ellipse fill="none" stroke="red" cx="83.5071" cy="-94.1312" rx="0.5" ry="0.5"/>
</g>
<!-- 0&#45;&#45;14 -->
<g id="edge120" class="edge"><title>0&#45;&#45;14</title>
<path fill="none" stroke="black" stroke-width="0.1" d="M88.029,-48.7393C87.5658,-53.3888 84.1137,-88.0422 83.5771,-93.4284"/>
</g>
<!-- 38 -->
<g id="node25" class="node"><title>38</title>
<ellipse fill="none" stroke="red" cx="74.3567" cy="-29.4225" rx="0.5" ry="0.5"/>
</g>
<!-- 0&#45;&#45;38 -->
<g id="edge35" class="edge"><title>0&#45;&#45;38</title>
<path fill="none" stroke="black" stroke-width="0.1" d="M87.7411,-47.759C85.892,-45.2257 77.0314,-33.0868 74.8452,-30.0917"/>
</g>
<!-- 40 -->
<g id="node26" class="node"><title>40</title>
<ellipse fill="none" stroke="red" cx="93.368" cy="-51.437" rx="0.5" ry="0.5"/>
</g>
<!-- 0&#45;&#45;40 -->
<g id="edge41" class="edge"><title>0&#45;&#45;40</title>
<path fill="none" stroke="black" stroke-width="0.1" d="M88.5683,-48.5203C89.5501,-49.1169 91.759,-50.4592 92.8021,-51.0931"/>
</g>
<!-- 47 -->
<g id="node27" class="node"><title>47</title>
<ellipse fill="none" stroke="red" cx="78.7923" cy="-9.95991" rx="0.5" ry="0.5"/>
</g>
<!-- 0&#45;&#45;47 -->
<g id="edge58" class="edge"><title>0&#45;&#45;47</title>
<path fill="none" stroke="black" stroke-width="0.1" d="M87.9192,-47.5596C86.8014,-42.9549 80.2138,-15.816 78.9885,-10.7679"/>
</g>
<!-- 46 -->
<g id="node28" class="node"><title>46</title>
<ellipse fill="none" stroke="red" cx="84.0717" cy="-15.0802" rx="0.5" ry="0.5"/>
</g>
<!-- 0&#45;&#45;46 -->
<g id="edge55" class="edge"><title>0&#45;&#45;46</title>
<path fill="none" stroke="black" stroke-width="0.1" d="M87.9813,-47.4044C87.4218,-42.7791 84.6655,-19.9896 84.1536,-15.7572"/>
</g>
<!-- 56 -->
<g id="node29" class="node"><title>56</title>
<ellipse fill="none" stroke="red" cx="106.72" cy="-35.8628" rx="0.5" ry="0.5"/>
</g>
<!-- 0&#45;&#45;56 -->
<g id="edge77" class="edge"><title>0&#45;&#45;56</title>
<path fill="none" stroke="black" stroke-width="0.1" d="M88.5411,-47.9182C91.0527,-46.2526 103.088,-38.2719 106.057,-36.3027"/>
</g>
<!-- 55 -->
<g id="node30" class="node"><title>55</title>
<ellipse fill="none" stroke="red" cx="112.804" cy="-49.8481" rx="0.5" ry="0.5"/>
</g>
<!-- 0&#45;&#45;55 -->
<g id="edge74" class="edge"><title>0&#45;&#45;55</title>
<path fill="none" stroke="black" stroke-width="0.1" d="M88.6915,-48.2639C92.1418,-48.4906 109.142,-49.6075 112.299,-49.8149"/>
</g>
<!-- 42 -->
<g id="node31" class="node"><title>42</title>
<ellipse fill="none" stroke="red" cx="66.1424" cy="-6.66103" rx="0.5" ry="0.5"/>
</g>
<!-- 0&#45;&#45;42 -->
<g id="edge47" class="edge"><title>0&#45;&#45;42</title>
<path fill="none" stroke="black" stroke-width="0.1" d="M87.834,-47.757C85.6498,-43.6188 69.6094,-13.2294 66.6211,-7.56778"/>
</g>
<!-- 43 -->
<g id="node32" class="node"><title>43</title>
<ellipse fill="none" stroke="red" cx="59.5601" cy="-10.6667" rx="0.5" ry="0.5"/>
</g>
<!-- 0&#45;&#45;43 -->
<g id="edge48" class="edge"><title>0&#45;&#45;43</title>
<path fill="none" stroke="black" stroke-width="0.1" d="M87.7601,-47.8019C84.9205,-44.0626 64.0673,-16.6021 60.1823,-11.4861"/>
</g>
<!-- 44 -->
<g id="node33" class="node"><title>44</title>
<ellipse fill="none" stroke="red" cx="50.8757" cy="-23.2054" rx="0.5" ry="0.5"/>
</g>
<!-- 0&#45;&#45;44 -->
<g id="edge50" class="edge"><title>0&#45;&#45;44</title>
<path fill="none" stroke="black" stroke-width="0.1" d="M87.6625,-47.9428C83.9583,-45.4518 56.7554,-27.1592 51.6874,-23.7512"/>
</g>
<!-- 53 -->
<g id="node34" class="node"><title>53</title>
<ellipse fill="none" stroke="red" cx="94.6659" cy="-13.1875" rx="0.5" ry="0.5"/>
</g>
<!-- 0&#45;&#45;53 -->
<g id="edge70" class="edge"><title>0&#45;&#45;53</title>
<path fill="none" stroke="black" stroke-width="0.1" d="M88.2432,-47.3577C89.1622,-42.4682 93.6904,-18.3773 94.5314,-13.9032"/>
</g>
<!-- 54 -->
<g id="node35" class="node"><title>54</title>
<ellipse fill="none" stroke="red" cx="78.5109" cy="-2.4293" rx="0.5" ry="0.5"/>
</g>
<!-- 0&#45;&#45;54 -->
<g id="edge72" class="edge"><title>0&#45;&#45;54</title>
<path fill="none" stroke="black" stroke-width="0.1" d="M87.9729,-47.7094C87.0037,-43.0714 79.7802,-8.50326 78.6574,-3.1303"/>
</g>
<!-- 48 -->
<g id="node36" class="node"><title>48</title>
<ellipse fill="none" stroke="red" cx="90.2748" cy="-0.5" rx="0.5" ry="0.5"/>
</g>
<!-- 0&#45;&#45;48 -->
<g id="edge60" class="edge"><title>0&#45;&#45;48</title>
<path fill="none" stroke="black" stroke-width="0.1" d="M88.105,-47.6878C88.3273,-42.8543 89.9837,-6.82985 90.2412,-1.23053"/>
</g>
<!-- 49 -->
<g id="node37" class="node"><title>49</title>
<ellipse fill="none" stroke="red" cx="99.5613" cy="-3.0847" rx="0.5" ry="0.5"/>
</g>
<!-- 0&#45;&#45;49 -->
<g id="edge62" class="edge"><title>0&#45;&#45;49</title>
<path fill="none" stroke="black" stroke-width="0.1" d="M88.2093,-47.7168C89.3721,-43.1451 98.0385,-9.07173 99.3855,-3.77567"/>
</g>
<!-- 51 -->
<g id="node38" class="node"><title>51</title>
<ellipse fill="none" stroke="red" cx="108.913" cy="-3.77532" rx="0.5" ry="0.5"/>
</g>
<!-- 0&#45;&#45;51 -->
<g id="edge67" class="edge"><title>0&#45;&#45;51</title>
<path fill="none" stroke="black" stroke-width="0.1" d="M88.3143,-47.7246C90.4242,-43.2228 106.15,-9.67075 108.594,-4.45571"/>
</g>
<!-- 50 -->
<g id="node39" class="node"><title>50</title>
<ellipse fill="none" stroke="red" cx="103.462" cy="-12.4161" rx="0.5" ry="0.5"/>
</g>
<!-- 0&#45;&#45;50 -->
<g id="edge65" class="edge"><title>0&#45;&#45;50</title>
<path fill="none" stroke="black" stroke-width="0.1" d="M88.4606,-47.3386C90.6071,-42.3415 101.183,-17.7202 103.148,-13.1476"/>
</g>
<!-- 2 -->
<g id="node40" class="node"><title>2</title>
<ellipse fill="none" stroke="red" cx="113.32" cy="-15.6475" rx="0.5" ry="0.5"/>
</g>
<!-- 0&#45;&#45;2 -->
<g id="edge101" class="edge"><title>0&#45;&#45;2</title>
<path fill="none" stroke="black" stroke-width="0.1" d="M88.7043,-47.4185C92.2266,-42.8723 109.581,-20.4729 112.805,-16.3129"/>
</g>
<!-- 52 -->
<g id="node41" class="node"><title>52</title>
<ellipse fill="none" stroke="red" cx="117.612" cy="-8.27898" rx="0.5" ry="0.5"/>
</g>
<!-- 0&#45;&#45;52 -->
<g id="edge69" class="edge"><title>0&#45;&#45;52</title>
<path fill="none" stroke="black" stroke-width="0.1" d="M88.412,-47.7751C91.3523,-43.7981 112.945,-14.5917 116.968,-9.15043"/>
</g>
<!-- 62 -->
<g id="node42" class="node"><title>62</title>
<ellipse fill="none" stroke="red" cx="126.085" cy="-50.0228" rx="0.5" ry="0.5"/>
</g>
<!-- 0&#45;&#45;62 -->
<g id="edge89" class="edge"><title>0&#45;&#45;62</title>
<path fill="none" stroke="black" stroke-width="0.1" d="M88.74,-48.255C93.3135,-48.4715 120.269,-49.7474 125.282,-49.9848"/>
</g>
<!-- 63 -->
<g id="node43" class="node"><title>63</title>
<ellipse fill="none" stroke="red" cx="117.25" cy="-39.3481" rx="0.5" ry="0.5"/>
</g>
<!-- 0&#45;&#45;63 -->
<g id="edge91" class="edge"><title>0&#45;&#45;63</title>
<path fill="none" stroke="black" stroke-width="0.1" d="M88.8014,-48.0043C92.8723,-46.7657 112.93,-40.6629 116.655,-39.5295"/>
</g>
<!-- 57 -->
<g id="node44" class="node"><title>57</title>
<ellipse fill="none" stroke="red" cx="117.272" cy="-27.6862" rx="0.5" ry="0.5"/>
</g>
<!-- 0&#45;&#45;57 -->
<g id="edge79" class="edge"><title>0&#45;&#45;57</title>
<path fill="none" stroke="black" stroke-width="0.1" d="M88.802,-47.7161C92.8758,-44.8499 112.948,-30.7284 116.676,-28.1058"/>
</g>
<!-- 58 -->
<g id="node45" class="node"><title>58</title>
<ellipse fill="none" stroke="red" cx="127.847" cy="-30.8407" rx="0.5" ry="0.5"/>
</g>
<!-- 0&#45;&#45;58 -->
<g id="edge81" class="edge"><title>0&#45;&#45;58</title>
<path fill="none" stroke="black" stroke-width="0.1" d="M88.7706,-47.922C93.5561,-45.8301 121.761,-33.5011 127.007,-31.2078"/>
</g>
<!-- 60 -->
<g id="node46" class="node"><title>60</title>
<ellipse fill="none" stroke="red" cx="130.284" cy="-23.7279" rx="0.5" ry="0.5"/>
</g>
<!-- 0&#45;&#45;60 -->
<g id="edge86" class="edge"><title>0&#45;&#45;60</title>
<path fill="none" stroke="black" stroke-width="0.1" d="M88.5543,-47.9486C92.8287,-45.4677 124.686,-26.9769 129.637,-24.1028"/>
</g>
<!-- 59 -->
<g id="node47" class="node"><title>59</title>
<ellipse fill="none" stroke="red" cx="130.015" cy="-40.5417" rx="0.5" ry="0.5"/>
</g>
<!-- 0&#45;&#45;59 -->
<g id="edge84" class="edge"><title>0&#45;&#45;59</title>
<path fill="none" stroke="black" stroke-width="0.1" d="M88.8082,-48.0904C93.8546,-47.1659 123.597,-41.7174 129.129,-40.7039"/>
</g>
<!-- 3 -->
<g id="node48" class="node"><title>3</title>
<ellipse fill="none" stroke="red" cx="137.38" cy="-40.7379" rx="0.5" ry="0.5"/>
</g>
<!-- 0&#45;&#45;3 -->
<g id="edge102" class="edge"><title>0&#45;&#45;3</title>
<path fill="none" stroke="black" stroke-width="0.1" d="M88.634,-48.1397C93.6271,-47.3815 130.841,-41.7308 136.625,-40.8525"/>
</g>
<!-- 61 -->
<g id="node49" class="node"><title>61</title>
<ellipse fill="none" stroke="red" cx="125.374" cy="-18.3106" rx="0.5" ry="0.5"/>
</g>
<!-- 0&#45;&#45;61 -->
<g id="edge88" class="edge"><title>0&#45;&#45;61</title>
<path fill="none" stroke="black" stroke-width="0.1" d="M88.4992,-47.8878C92.2123,-44.9095 119.48,-23.038 124.56,-18.9632"/>
</g>
<!-- 65 -->
<g id="node50" class="node"><title>65</title>
<ellipse fill="none" stroke="red" cx="37.2707" cy="-75.2833" rx="0.5" ry="0.5"/>
</g>
<!-- 0&#45;&#45;65 -->
<g id="edge95" class="edge"><title>0&#45;&#45;65</title>
<path fill="none" stroke="black" stroke-width="0.1" d="M87.5097,-48.5276C82.2765,-51.3147 42.7002,-72.3918 37.7736,-75.0155"/>
</g>
<!-- 66 -->
<g id="node51" class="node"><title>66</title>
<ellipse fill="none" stroke="red" cx="50.3029" cy="-77.801" rx="0.5" ry="0.5"/>
</g>
<!-- 0&#45;&#45;66 -->
<g id="edge98" class="edge"><title>0&#45;&#45;66</title>
<path fill="none" stroke="black" stroke-width="0.1" d="M87.6561,-48.5559C83.8948,-51.5007 56.2731,-73.1267 51.127,-77.1557"/>
</g>
<!-- 68 -->
<g id="node53" class="node"><title>68</title>
<ellipse fill="none" stroke="red" cx="83.4395" cy="-85.8135" rx="0.5" ry="0.5"/>
</g>
<!-- 0&#45;&#45;68 -->
<g id="edge99" class="edge"><title>0&#45;&#45;68</title>
<path fill="none" stroke="black" stroke-width="0.1" d="M87.9998,-48.8762C87.4413,-53.3997 84.1498,-80.0605 83.5375,-85.0197"/>
</g>
<!-- 1 -->
<g id="node54" class="node"><title>1</title>
<ellipse fill="none" stroke="red" cx="102.133" cy="-94.9535" rx="0.5" ry="0.5"/>
</g>
<!-- 0&#45;&#45;1 -->
<g id="edge100" class="edge"><title>0&#45;&#45;1</title>
<path fill="none" stroke="black" stroke-width="0.1" d="M88.2382,-48.7485C89.6614,-53.4813 100.269,-88.7555 101.918,-94.2382"/>
</g>
<!-- 4 -->
<g id="node55" class="node"><title>4</title>
<ellipse fill="none" stroke="red" cx="71.7895" cy="-85.4291" rx="0.5" ry="0.5"/>
</g>
<!-- 0&#45;&#45;4 -->
<g id="edge103" class="edge"><title>0&#45;&#45;4</title>
<path fill="none" stroke="black" stroke-width="0.1" d="M87.7976,-48.8695C85.8372,-53.3468 74.2828,-79.735 72.1336,-84.6434"/>
</g>
<!-- 5 -->
<g id="node56" class="node"><title>5</title>
<ellipse fill="none" stroke="red" cx="63.9183" cy="-90.415" rx="0.5" ry="0.5"/>
</g>
<!-- 0&#45;&#45;5 -->
<g id="edge104" class="edge"><title>0&#45;&#45;5</title>
<path fill="none" stroke="black" stroke-width="0.1" d="M87.809,-48.6976C85.3619,-52.9707 67.1231,-84.8189 64.2882,-89.7692"/>
</g>
<!-- 7 -->
<g id="node57" class="node"><title>7</title>
<ellipse fill="none" stroke="red" cx="92.7748" cy="-96.806" rx="0.5" ry="0.5"/>
</g>
<!-- 0&#45;&#45;7 -->
<g id="edge106" class="edge"><title>0&#45;&#45;7</title>
<path fill="none" stroke="black" stroke-width="0.1" d="M88.1331,-48.7693C88.6085,-53.6898 92.1522,-90.3623 92.7029,-96.0624"/>
</g>
<!-- 8 -->
<g id="node58" class="node"><title>8</title>
<ellipse fill="none" stroke="red" cx="120.311" cy="-58.1679" rx="0.5" ry="0.5"/>
</g>
<!-- 0&#45;&#45;8 -->
<g id="edge107" class="edge"><title>0&#45;&#45;8</title>
<path fill="none" stroke="black" stroke-width="0.1" d="M88.8771,-48.4695C93.375,-49.8573 115.537,-56.6949 119.653,-57.9648"/>
</g>
<!-- 9 -->
<g id="node59" class="node"><title>9</title>
<ellipse fill="none" stroke="red" cx="121.715" cy="-71.9013" rx="0.5" ry="0.5"/>
</g>
<!-- 0&#45;&#45;9 -->
<g id="edge108" class="edge"><title>0&#45;&#45;9</title>
<path fill="none" stroke="black" stroke-width="0.1" d="M88.9118,-48.809C93.6056,-52.1133 116.733,-68.394 121.028,-71.4176"/>
</g>
<!-- 11 -->
<g id="node60" class="node"><title>11</title>
<ellipse fill="none" stroke="red" cx="125.558" cy="-79.5213" rx="0.5" ry="0.5"/>
</g>
<!-- 0&#45;&#45;11 -->
<g id="edge113" class="edge"><title>0&#45;&#45;11</title>
<path fill="none" stroke="black" stroke-width="0.1" d="M88.5013,-48.5752C92.2326,-51.6913 119.635,-74.5752 124.74,-78.8385"/>
</g>
<!-- 12 -->
<g id="node61" class="node"><title>12</title>
<ellipse fill="none" stroke="red" cx="119.701" cy="-86.0904" rx="0.5" ry="0.5"/>
</g>
<!-- 0&#45;&#45;12 -->
<g id="edge116" class="edge"><title>0&#45;&#45;12</title>
<path fill="none" stroke="black" stroke-width="0.1" d="M88.4355,-48.649C91.5837,-52.4191 114.703,-80.1061 119.011,-85.2643"/>
</g>
<!-- 15 -->
<g id="node62" class="node"><title>15</title>
<ellipse fill="none" stroke="red" cx="73.906" cy="-92.9805" rx="0.5" ry="0.5"/>
</g>
<!-- 0&#45;&#45;15 -->
<g id="edge122" class="edge"><title>0&#45;&#45;15</title>
<path fill="none" stroke="black" stroke-width="0.1" d="M87.9212,-48.7264C86.4856,-53.2593 75.786,-87.0442 74.1229,-92.2954"/>
</g>
<!-- 17 -->
<g id="node63" class="node"><title>17</title>
<ellipse fill="none" stroke="red" cx="49.684" cy="-46.5762" rx="0.5" ry="0.5"/>
</g>
<!-- 0&#45;&#45;17 -->
<g id="edge127" class="edge"><title>0&#45;&#45;17</title>
<path fill="none" stroke="black" stroke-width="0.1" d="M87.4139,-48.1951C82.7933,-47.9969 55.5604,-46.8283 50.4948,-46.611"/>
</g>
<!-- 18 -->
<g id="node64" class="node"><title>18</title>
<ellipse fill="none" stroke="red" cx="40.4878" cy="-50.3508" rx="0.5" ry="0.5"/>
</g>
<!-- 0&#45;&#45;18 -->
<g id="edge130" class="edge"><title>0&#45;&#45;18</title>
<path fill="none" stroke="black" stroke-width="0.1" d="M87.5459,-48.2476C82.7257,-48.4631 46.8002,-50.0687 41.2163,-50.3183"/>
</g>
<!-- 19 -->
<g id="node65" class="node"><title>19</title>
<ellipse fill="none" stroke="red" cx="36.4376" cy="-25.8095" rx="0.5" ry="0.5"/>
</g>
<!-- 0&#45;&#45;19 -->
<g id="edge131" class="edge"><title>0&#45;&#45;19</title>
<path fill="none" stroke="black" stroke-width="0.1" d="M87.5004,-47.972C82.1814,-45.6634 41.9561,-28.2046 36.9487,-26.0313"/>
</g>
<!-- 20 -->
<g id="node67" class="node"><title>20</title>
<ellipse fill="none" stroke="red" cx="53.8984" cy="-15.3288" rx="0.5" ry="0.5"/>
</g>
<!-- 0&#45;&#45;20 -->
<g id="edge134" class="edge"><title>0&#45;&#45;20</title>
<path fill="none" stroke="black" stroke-width="0.1" d="M87.6965,-47.8543C84.2932,-44.5792 59.3003,-20.5274 54.6441,-16.0465"/>
</g>
<!-- 22 -->
<g id="node68" class="node"><title>22</title>
<ellipse fill="none" stroke="red" cx="66.4841" cy="-16.7006" rx="0.5" ry="0.5"/>
</g>
<!-- 0&#45;&#45;22 -->
<g id="edge137" class="edge"><title>0&#45;&#45;22</title>
<path fill="none" stroke="black" stroke-width="0.1" d="M87.5465,-47.4445C84.5327,-43.0453 69.6831,-21.37 66.9253,-17.3446"/>
</g>
<!-- 23 -->
<g id="node69" class="node"><title>23</title>
<ellipse fill="none" stroke="red" cx="63.6574" cy="-30.2108" rx="0.5" ry="0.5"/>
</g>
<!-- 0&#45;&#45;23 -->
<g id="edge140" class="edge"><title>0&#45;&#45;23</title>
<path fill="none" stroke="black" stroke-width="0.1" d="M87.4766,-47.7785C84.0683,-45.2647 67.2751,-32.879 64.1563,-30.5787"/>
</g>
<!-- 26&#45;&#45;10 -->
<g id="edge3" class="edge"><title>26&#45;&#45;10</title>
<path fill="none" stroke="black" stroke-width="0.1" d="M101.296,-71.7657C103.429,-72.5387 110.96,-75.2682 113.261,-76.1023"/>
</g>
<!-- 26&#45;&#45;16 -->
<g id="edge4" class="edge"><title>26&#45;&#45;16</title>
<path fill="none" stroke="black" stroke-width="0.1" d="M100.043,-71.2668C96.1717,-69.6109 77.0979,-61.452 73.5556,-59.9367"/>
</g>
<!-- 26&#45;&#45;36 -->
<g id="edge5" class="edge"><title>26&#45;&#45;36</title>
<path fill="none" stroke="black" stroke-width="0.1" d="M100.466,-72.1495C99.4807,-74.3649 96.0002,-82.1881 94.9366,-84.5788"/>
</g>
<!-- 26&#45;&#45;13 -->
<g id="edge6" class="edge"><title>26&#45;&#45;13</title>
<path fill="none" stroke="black" stroke-width="0.1" d="M100.101,-71.3354C97.6529,-70.4596 88.78,-67.2849 86.6001,-66.5049"/>
</g>
<!-- 26&#45;&#45;6 -->
<g id="edge7" class="edge"><title>26&#45;&#45;6</title>
<path fill="none" stroke="black" stroke-width="0.1" d="M101.287,-72.4603C102.505,-74.4225 105.371,-79.0418 106.403,-80.705"/>
</g>
<!-- 10&#45;&#45;11 -->
<g id="edge112" class="edge"><title>10&#45;&#45;11</title>
<path fill="none" stroke="black" stroke-width="0.1" d="M113.752,-77.1438C112.326,-84.9628 122.586,-87.7569 125.318,-80.2774"/>
</g>
<!-- 16&#45;&#45;17 -->
<g id="edge126" class="edge"><title>16&#45;&#45;17</title>
<path fill="none" stroke="black" stroke-width="0.1" d="M72.4128,-59.3701C69.1605,-57.5394 53.1361,-48.5193 50.1601,-46.8442"/>
</g>
<!-- 36&#45;&#45;14 -->
<g id="edge31" class="edge"><title>36&#45;&#45;14</title>
<path fill="none" stroke="black" stroke-width="0.1" d="M94.1478,-85.6583C92.4187,-87.0352 86.4748,-91.768 84.3067,-93.4945"/>
</g>
<!-- 13&#45;&#45;27 -->
<g id="edge119" class="edge"><title>13&#45;&#45;27</title>
<path fill="none" stroke="black" stroke-width="0.1" d="M86.6867,-65.7438C91.7801,-59.5295 77.9095,-43.5234 71.0453,-47.7178"/>
</g>
<!-- 27&#45;&#45;13 -->
<g id="edge9" class="edge"><title>27&#45;&#45;13</title>
<path fill="none" stroke="black" stroke-width="0.1" d="M69.8309,-48.7749C64.7374,-54.9892 78.608,-70.9954 85.4723,-66.8009"/>
</g>
<!-- 27&#45;&#45;37 -->
<g id="edge10" class="edge"><title>27&#45;&#45;37</title>
<path fill="none" stroke="black" stroke-width="0.1" d="M70.9415,-47.734C73.0377,-45.9653 80.6362,-39.5538 82.5031,-37.9786"/>
</g>
<!-- 27&#45;&#45;64 -->
<g id="edge11" class="edge"><title>27&#45;&#45;64</title>
<path fill="none" stroke="black" stroke-width="0.1" d="M69.8472,-48.4501C66.7051,-49.9309 51.2239,-57.2271 48.3488,-58.5822"/>
</g>
<!-- 27&#45;&#45;34 -->
<g id="edge12" class="edge"><title>27&#45;&#45;34</title>
<path fill="none" stroke="black" stroke-width="0.1" d="M69.8056,-47.7087C67.4742,-45.8415 59.0227,-39.0729 56.9463,-37.41"/>
</g>
<!-- 27&#45;&#45;32 -->
<g id="edge13" class="edge"><title>27&#45;&#45;32</title>
<path fill="none" stroke="black" stroke-width="0.1" d="M70.226,-48.6728C69.2568,-51.3163 64.6131,-63.9833 63.4673,-67.1087"/>
</g>
<!-- 37&#45;&#45;38 -->
<g id="edge33" class="edge"><title>37&#45;&#45;38</title>
<path fill="none" stroke="black" stroke-width="0.1" d="M82.5516,-37.2747C81.2199,-35.9987 76.6423,-31.6125 74.9725,-30.0126"/>
</g>
<!-- 37&#45;&#45;40 -->
<g id="edge34" class="edge"><title>37&#45;&#45;40</title>
<path fill="none" stroke="black" stroke-width="0.1" d="M83.3684,-38.2206C85.1184,-40.5335 91.4618,-48.9176 93.0203,-50.9775"/>
</g>
<!-- 64&#45;&#45;65 -->
<g id="edge94" class="edge"><title>64&#45;&#45;65</title>
<path fill="none" stroke="black" stroke-width="0.1" d="M47.4326,-59.5072C45.6543,-62.2681 39.2078,-72.276 37.624,-74.7349"/>
</g>
<!-- 34&#45;&#45;41 -->
<g id="edge25" class="edge"><title>34&#45;&#45;41</title>
<path fill="none" stroke="black" stroke-width="0.1" d="M55.7087,-36.504C54.0209,-35.3377 50.0475,-32.5923 48.6168,-31.6038"/>
</g>
<!-- 34&#45;&#45;45 -->
<g id="edge26" class="edge"><title>34&#45;&#45;45</title>
<path fill="none" stroke="black" stroke-width="0.1" d="M55.9769,-37.0607C54.1446,-37.1392 47.8463,-37.4092 45.5489,-37.5077"/>
</g>
<!-- 28&#45;&#45;39 -->
<g id="edge15" class="edge"><title>28&#45;&#45;39</title>
<path fill="none" stroke="black" stroke-width="0.1" d="M60.0035,-50.012C59.9916,-51.9266 59.9506,-58.5083 59.9356,-60.9091"/>
</g>
<!-- 28&#45;&#45;29 -->
<g id="edge16" class="edge"><title>28&#45;&#45;29</title>
<path fill="none" stroke="black" stroke-width="0.1" d="M59.5865,-50.1418C57.9485,-52.7098 52.0107,-62.0187 50.5518,-64.3058"/>
</g>
<!-- 30&#45;&#45;39 -->
<g id="edge19" class="edge"><title>30&#45;&#45;39</title>
<path fill="none" stroke="black" stroke-width="0.1" d="M73.5968,-69.5005C71.2052,-68.152 62.5353,-63.2635 60.4052,-62.0624"/>
</g>
<!-- 30&#45;&#45;31 -->
<g id="edge20" class="edge"><title>30&#45;&#45;31</title>
<path fill="none" stroke="black" stroke-width="0.1" d="M73.6954,-70.2586C71.6881,-71.8649 64.4115,-77.6877 62.6238,-79.1183"/>
</g>
<!-- 45&#45;&#45;44 -->
<g id="edge54" class="edge"><title>45&#45;&#45;44</title>
<path fill="none" stroke="black" stroke-width="0.1" d="M44.9669,-36.9279C46.0009,-34.5264 49.7493,-25.8212 50.6703,-23.6824"/>
</g>
<!-- 35&#45;&#45;26 -->
<g id="edge29" class="edge"><title>35&#45;&#45;26</title>
<path fill="none" stroke="black" stroke-width="0.1" d="M120.02,-66.234C117.355,-66.9699 104.584,-70.4958 101.433,-71.3657"/>
</g>
<!-- 35&#45;&#45;24 -->
<g id="edge28" class="edge"><title>35&#45;&#45;24</title>
<path fill="none" stroke="black" stroke-width="0.1" d="M121.015,-66.0961C122.846,-66.0856 129.141,-66.0493 131.437,-66.036"/>
</g>
<!-- 14&#45;&#45;15 -->
<g id="edge121" class="edge"><title>14&#45;&#45;15</title>
<path fill="none" stroke="black" stroke-width="0.1" d="M82.621,-94.025C80.6899,-93.7935 76.1435,-93.2487 74.5065,-93.0525"/>
</g>
<!-- 38&#45;&#45;27 -->
<g id="edge37" class="edge"><title>38&#45;&#45;27</title>
<path fill="none" stroke="black" stroke-width="0.1" d="M74.1869,-30.2288C73.5248,-33.3717 71.1249,-44.7644 70.5353,-47.5634"/>
</g>
<!-- 38&#45;&#45;28 -->
<g id="edge38" class="edge"><title>38&#45;&#45;28</title>
<path fill="none" stroke="black" stroke-width="0.1" d="M74.002,-29.9184C71.9994,-32.7179 62.1324,-46.5115 60.2999,-49.0732"/>
</g>
<!-- 38&#45;&#45;47 -->
<g id="edge36" class="edge"><title>38&#45;&#45;47</title>
<path fill="none" stroke="black" stroke-width="0.1" d="M74.5473,-28.5862C75.2902,-25.3266 77.9831,-13.5106 78.6448,-10.6075"/>
</g>
<!-- 38&#45;&#45;46 -->
<g id="edge39" class="edge"><title>38&#45;&#45;46</title>
<path fill="none" stroke="black" stroke-width="0.1" d="M74.7742,-28.8063C76.4012,-26.4042 82.2994,-17.6967 83.7485,-15.5574"/>
</g>
<!-- 40&#45;&#45;27 -->
<g id="edge43" class="edge"><title>40&#45;&#45;27</title>
<path fill="none" stroke="black" stroke-width="0.1" d="M92.8003,-51.3567C89.7061,-50.9189 74.8794,-48.8211 71.2211,-48.3034"/>
</g>
<!-- 40&#45;&#45;30 -->
<g id="edge44" class="edge"><title>40&#45;&#45;30</title>
<path fill="none" stroke="black" stroke-width="0.1" d="M92.8944,-51.8921C90.2209,-54.4612 77.0482,-67.1196 74.6018,-69.4705"/>
</g>
<!-- 40&#45;&#45;56 -->
<g id="edge42" class="edge"><title>40&#45;&#45;56</title>
<path fill="none" stroke="black" stroke-width="0.1" d="M93.9417,-50.7678C96.178,-48.1594 104.285,-38.7041 106.276,-36.381"/>
</g>
<!-- 40&#45;&#45;55 -->
<g id="edge45" class="edge"><title>40&#45;&#45;55</title>
<path fill="none" stroke="black" stroke-width="0.1" d="M94.2031,-51.3687C97.4583,-51.1026 109.258,-50.1379 112.157,-49.9009"/>
</g>
<!-- 47&#45;&#45;48 -->
<g id="edge59" class="edge"><title>47&#45;&#45;48</title>
<path fill="none" stroke="black" stroke-width="0.1" d="M79.2857,-9.55343C81.0714,-8.08225 87.2099,-3.02506 89.449,-1.18033"/>
</g>
<!-- 46&#45;&#45;53 -->
<g id="edge56" class="edge"><title>46&#45;&#45;53</title>
<path fill="none" stroke="black" stroke-width="0.1" d="M84.7668,-14.956C86.6818,-14.6139 92.0199,-13.6602 93.9544,-13.3146"/>
</g>
<!-- 46&#45;&#45;54 -->
<g id="edge57" class="edge"><title>46&#45;&#45;54</title>
<path fill="none" stroke="black" stroke-width="0.1" d="M83.8328,-14.5366C82.968,-12.5691 79.9952,-5.80609 78.9108,-3.33912"/>
</g>
<!-- 56&#45;&#45;57 -->
<g id="edge78" class="edge"><title>56&#45;&#45;57</title>
<path fill="none" stroke="black" stroke-width="0.1" d="M107.174,-35.5115C108.815,-34.2399 114.455,-29.8687 116.513,-28.2743"/>
</g>
<!-- 55&#45;&#45;62 -->
<g id="edge75" class="edge"><title>55&#45;&#45;62</title>
<path fill="none" stroke="black" stroke-width="0.1" d="M113.375,-49.8556C115.519,-49.8838 123.094,-49.9834 125.408,-50.0139"/>
</g>
<!-- 55&#45;&#45;63 -->
<g id="edge76" class="edge"><title>55&#45;&#45;63</title>
<path fill="none" stroke="black" stroke-width="0.1" d="M113.096,-49.1591C113.899,-47.2612 116.14,-41.9706 116.952,-40.0534"/>
</g>
<!-- 43&#45;&#45;42 -->
<g id="edge49" class="edge"><title>43&#45;&#45;42</title>
<path fill="none" stroke="black" stroke-width="0.1" d="M60.1675,-10.2971C61.3897,-9.55333 64.1395,-7.87993 65.438,-7.08971"/>
</g>
<!-- 44&#45;&#45;41 -->
<g id="edge51" class="edge"><title>44&#45;&#45;41</title>
<path fill="none" stroke="black" stroke-width="0.1" d="M50.6188,-23.9469C50.0589,-25.5633 48.7407,-29.3683 48.266,-30.7384"/>
</g>
<!-- 44&#45;&#45;43 -->
<g id="edge52" class="edge"><title>44&#45;&#45;43</title>
<path fill="none" stroke="black" stroke-width="0.1" d="M51.2489,-22.6666C52.7033,-20.5666 57.9758,-12.9542 59.2711,-11.0839"/>
</g>
<!-- 53&#45;&#45;50 -->
<g id="edge71" class="edge"><title>53&#45;&#45;50</title>
<path fill="none" stroke="black" stroke-width="0.1" d="M95.4777,-13.1163C97.2469,-12.9612 101.412,-12.5959 102.912,-12.4644"/>
</g>
<!-- 54&#45;&#45;47 -->
<g id="edge73" class="edge"><title>54&#45;&#45;47</title>
<path fill="none" stroke="black" stroke-width="0.1" d="M78.5369,-3.12426C78.5891,-4.52247 78.7067,-7.66842 78.7622,-9.15401"/>
</g>
<!-- 48&#45;&#45;49 -->
<g id="edge61" class="edge"><title>48&#45;&#45;49</title>
<path fill="none" stroke="black" stroke-width="0.1" d="M91.1318,-0.73853C92.9997,-1.25842 97.397,-2.48233 98.9804,-2.92302"/>
</g>
<!-- 49&#45;&#45;51 -->
<g id="edge63" class="edge"><title>49&#45;&#45;51</title>
<path fill="none" stroke="black" stroke-width="0.1" d="M100.424,-3.14844C102.305,-3.28735 106.733,-3.61437 108.328,-3.73212"/>
</g>
<!-- 49&#45;&#45;50 -->
<g id="edge64" class="edge"><title>49&#45;&#45;50</title>
<path fill="none" stroke="black" stroke-width="0.1" d="M99.9212,-3.94585C100.706,-5.82278 102.553,-10.2414 103.218,-11.8324"/>
</g>
<!-- 51&#45;&#45;52 -->
<g id="edge68" class="edge"><title>51&#45;&#45;52</title>
<path fill="none" stroke="black" stroke-width="0.1" d="M109.716,-4.19094C111.465,-5.09681 115.585,-7.22939 117.068,-7.99726"/>
</g>
<!-- 50&#45;&#45;2 -->
<g id="edge66" class="edge"><title>50&#45;&#45;2</title>
<path fill="none" stroke="black" stroke-width="0.1" d="M104.372,-12.7143C106.354,-13.3643 111.023,-14.8944 112.703,-15.4453"/>
</g>
<!-- 62&#45;&#45;59 -->
<g id="edge90" class="edge"><title>62&#45;&#45;59</title>
<path fill="none" stroke="black" stroke-width="0.1" d="M126.448,-49.1478C127.238,-47.2408 129.099,-42.7513 129.769,-41.1348"/>
</g>
<!-- 63&#45;&#45;56 -->
<g id="edge92" class="edge"><title>63&#45;&#45;56</title>
<path fill="none" stroke="black" stroke-width="0.1" d="M116.56,-39.1195C114.656,-38.4895 109.35,-36.7333 107.428,-36.0969"/>
</g>
<!-- 57&#45;&#45;58 -->
<g id="edge80" class="edge"><title>57&#45;&#45;58</title>
<path fill="none" stroke="black" stroke-width="0.1" d="M117.966,-27.8932C119.877,-28.4634 125.206,-30.0528 127.137,-30.6288"/>
</g>
<!-- 58&#45;&#45;60 -->
<g id="edge82" class="edge"><title>58&#45;&#45;60</title>
<path fill="none" stroke="black" stroke-width="0.1" d="M128.072,-30.1843C128.524,-28.8637 129.542,-25.8922 130.023,-24.4891"/>
</g>
<!-- 58&#45;&#45;59 -->
<g id="edge83" class="edge"><title>58&#45;&#45;59</title>
<path fill="none" stroke="black" stroke-width="0.1" d="M128.047,-31.7359C128.483,-33.6872 129.509,-38.2809 129.879,-39.9349"/>
</g>
<!-- 60&#45;&#45;61 -->
<g id="edge87" class="edge"><title>60&#45;&#45;61</title>
<path fill="none" stroke="black" stroke-width="0.1" d="M129.83,-23.2279C128.919,-22.2221 126.868,-19.9591 125.899,-18.8904"/>
</g>
<!-- 59&#45;&#45;3 -->
<g id="edge85" class="edge"><title>59&#45;&#45;3</title>
<path fill="none" stroke="black" stroke-width="0.1" d="M130.694,-40.5598C132.062,-40.5963 135.139,-40.6782 136.592,-40.7169"/>
</g>
<!-- 65&#45;&#45;66 -->
<g id="edge96" class="edge"><title>65&#45;&#45;66</title>
<path fill="none" stroke="black" stroke-width="0.1" d="M37.8307,-75.3915C39.9353,-75.7981 47.3675,-77.2339 49.6387,-77.6727"/>
</g>
<!-- 67 -->
<g id="node52" class="node"><title>67</title>
<ellipse fill="none" stroke="red" cx="3.66476" cy="-95.1967" rx="0.5" ry="0.5"/>
</g>
<!-- 65&#45;&#45;67 -->
<g id="edge97" class="edge"><title>65&#45;&#45;67</title>
<path fill="none" stroke="black" stroke-width="0.1" d="M36.44,-75.7756C31.7501,-78.5546 8.64269,-92.247 4.35128,-94.7899"/>
</g>
<!-- 9&#45;&#45;26 -->
<g id="edge110" class="edge"><title>9&#45;&#45;26</title>
<path fill="none" stroke="black" stroke-width="0.1" d="M121.196,-71.8929C118.368,-71.8469 104.819,-71.6266 101.476,-71.5722"/>
</g>
<!-- 9&#45;&#45;24 -->
<g id="edge109" class="edge"><title>9&#45;&#45;24</title>
<path fill="none" stroke="black" stroke-width="0.1" d="M122.169,-71.6491C123.813,-70.7362 129.463,-67.598 131.524,-66.4533"/>
</g>
<!-- 11&#45;&#45;10 -->
<g id="edge114" class="edge"><title>11&#45;&#45;10</title>
<path fill="none" stroke="black" stroke-width="0.1" d="M125.74,-78.7237C127.166,-70.9048 116.906,-68.1107 114.174,-75.5902"/>
</g>
<!-- 11&#45;&#45;12 -->
<g id="edge115" class="edge"><title>11&#45;&#45;12</title>
<path fill="none" stroke="black" stroke-width="0.1" d="M124.931,-78.9962C118.688,-74.0997 113.525,-79.9025 119.125,-85.5452"/>
</g>
<!-- 12&#45;&#45;11 -->
<g id="edge117" class="edge"><title>12&#45;&#45;11</title>
<path fill="none" stroke="black" stroke-width="0.1" d="M120.327,-86.6156C126.57,-91.512 131.733,-85.7092 126.134,-80.0665"/>
</g>
<!-- 15&#45;&#45;4 -->
<g id="edge124" class="edge"><title>15&#45;&#45;4</title>
<path fill="none" stroke="black" stroke-width="0.1" d="M73.7106,-92.2836C73.3177,-90.8816 72.4335,-87.7269 72.016,-86.2372"/>
</g>
<!-- 15&#45;&#45;5 -->
<g id="edge123" class="edge"><title>15&#45;&#45;5</title>
<path fill="none" stroke="black" stroke-width="0.1" d="M72.9842,-92.7437C70.9753,-92.2277 66.246,-91.0129 64.5431,-90.5755"/>
</g>
<!-- 17&#45;&#45;18 -->
<g id="edge128" class="edge"><title>17&#45;&#45;18</title>
<path fill="none" stroke="black" stroke-width="0.1" d="M48.8353,-46.9245C46.9856,-47.6838 42.631,-49.4712 41.0631,-50.1147"/>
</g>
<!-- 17&#45;&#45;19 -->
<g id="edge129" class="edge"><title>17&#45;&#45;19</title>
<path fill="none" stroke="black" stroke-width="0.1" d="M49.3566,-46.0629C47.508,-43.1648 38.3998,-28.8856 36.7082,-26.2337"/>
</g>
<!-- 21 -->
<g id="node66" class="node"><title>21</title>
<ellipse fill="none" stroke="red" cx="0.5" cy="-9.95662" rx="0.5" ry="0.5"/>
</g>
<!-- 19&#45;&#45;21 -->
<g id="edge132" class="edge"><title>19&#45;&#45;21</title>
<path fill="none" stroke="black" stroke-width="0.1" d="M35.5493,-25.4176C30.534,-23.2053 5.82332,-12.3049 1.23415,-10.2805"/>
</g>
<!-- 19&#45;&#45;20 -->
<g id="edge133" class="edge"><title>19&#45;&#45;20</title>
<path fill="none" stroke="black" stroke-width="0.1" d="M36.8692,-25.5504C39.2219,-24.1382 50.4953,-17.3715 53.2769,-15.7019"/>
</g>
<!-- 20&#45;&#45;42 -->
<g id="edge135" class="edge"><title>20&#45;&#45;42</title>
<path fill="none" stroke="black" stroke-width="0.1" d="M54.4245,-14.9564C56.3286,-13.6084 62.8742,-8.97466 65.2619,-7.2844"/>
</g>
<!-- 20&#45;&#45;22 -->
<g id="edge136" class="edge"><title>20&#45;&#45;22</title>
<path fill="none" stroke="black" stroke-width="0.1" d="M54.4391,-15.3878C56.3964,-15.6011 63.1247,-16.3344 65.579,-16.6019"/>
</g>
<!-- 22&#45;&#45;42 -->
<g id="edge138" class="edge"><title>22&#45;&#45;42</title>
<path fill="none" stroke="black" stroke-width="0.1" d="M66.4526,-15.7741C66.3838,-13.7547 66.2221,-9.00078 66.1638,-7.28905"/>
</g>
<!-- 22&#45;&#45;23 -->
<g id="edge139" class="edge"><title>22&#45;&#45;23</title>
<path fill="none" stroke="black" stroke-width="0.1" d="M65.6759,-16.5719C57.7647,-15.718 55.2782,-27.6426 62.8891,-30.012"/>
</g>
<!-- 23&#45;&#45;27 -->
<g id="edge144" class="edge"><title>23&#45;&#45;27</title>
<path fill="none" stroke="black" stroke-width="0.1" d="M63.9473,-30.9832C65.0771,-33.994 69.173,-44.9082 70.1793,-47.5897"/>
</g>
<!-- 23&#45;&#45;34 -->
<g id="edge142" class="edge"><title>23&#45;&#45;34</title>
<path fill="none" stroke="black" stroke-width="0.1" d="M62.9953,-30.8409C61.5523,-32.2144 58.1551,-35.4477 56.9319,-36.6119"/>
</g>
<!-- 23&#45;&#45;22 -->
<g id="edge141" class="edge"><title>23&#45;&#45;22</title>
<path fill="none" stroke="black" stroke-width="0.1" d="M64.4655,-30.3394C72.3767,-31.1934 74.8633,-19.2688 67.2523,-16.8993"/>
</g>
<!-- 23&#45;&#45;23 -->
<g id="edge143" class="edge"><title>23&#45;&#45;23</title>
<path fill="none" stroke="black" stroke-width="0.1" d="M64.253,-30.6195C70.5828,-34.7064 82.1574,-34.5701 82.1574,-30.2108 82.1574,-25.8514 70.5828,-25.7152 64.253,-29.8021"/>
</g>
<!-- 23&#45;&#45;23 -->
<g id="edge145" class="edge"><title>23&#45;&#45;23</title>
<path fill="none" stroke="black" stroke-width="0.1" d="M64.2365,-30.626C76.5785,-39.2086 100.157,-39.0701 100.157,-30.2108 100.157,-21.3514 76.5785,-21.213 64.2365,-29.7955"/>
</g>
</g>
</svg>
