<?xml version="1.0" encoding="UTF-8" standalone="no"?>
<!DOCTYPE svg PUBLIC "-//W3C//DTD SVG 1.1//EN"
 "http://www.w3.org/Graphics/SVG/1.1/DTD/svg11.dtd">
<!-- Generated by graphviz version 2.34.0 (20140110.0949)
 -->
<!-- Title: PDF09a0f7aae0e22b5d80c7950890f3f738 Pages: 1 -->
<svg width="612pt" height="607pt"
 viewBox="0.00 0.00 612.00 607.21" xmlns="http://www.w3.org/2000/svg" xmlns:xlink="http://www.w3.org/1999/xlink">
<g id="graph0" class="graph" transform="scale(1.97608 1.97608) rotate(0) translate(4 303.279)">
<title>PDF09a0f7aae0e22b5d80c7950890f3f738</title>
<polygon fill="white" stroke="white" points="-4,4 -4,-303.279 305.704,-303.279 305.704,4 -4,4"/>
<!-- 0 -->
<g id="node1" class="node"><title>0</title>
<ellipse fill="none" stroke="red" cx="110.443" cy="-193.975" rx="0.5" ry="0.5"/>
</g>
<!-- 25 -->
<g id="node2" class="node"><title>25</title>
<ellipse fill="none" stroke="red" cx="216.43" cy="-192.236" rx="0.5" ry="0.5"/>
</g>
<!-- 0&#45;&#45;25 -->
<g id="edge1" class="edge"><title>0&#45;&#45;25</title>
<path fill="none" stroke="black" stroke-width="0.1" d="M111.12,-193.964C119.723,-193.823 207.595,-192.381 215.814,-192.246"/>
</g>
<!-- 26 -->
<g id="node3" class="node"><title>26</title>
<ellipse fill="none" stroke="red" cx="56.2988" cy="-160.674" rx="0.5" ry="0.5"/>
</g>
<!-- 0&#45;&#45;26 -->
<g id="edge2" class="edge"><title>0&#45;&#45;26</title>
<path fill="none" stroke="black" stroke-width="0.1" d="M110.839,-193.243C118.077,-177.858 67.2109,-146.578 56.7653,-160.001"/>
</g>
<!-- 0&#45;&#45;26 -->
<g id="edge148" class="edge"><title>0&#45;&#45;26</title>
<path fill="none" stroke="black" stroke-width="0.1" d="M109.968,-194.658C99.5024,-208.058 48.641,-176.771 55.9084,-161.394"/>
</g>
<!-- 0&#45;&#45;26 -->
<g id="edge150" class="edge"><title>0&#45;&#45;26</title>
<path fill="none" stroke="black" stroke-width="0.1" d="M109.835,-193.601C104.258,-190.171 62.0846,-164.232 56.8347,-161.003"/>
</g>
<!-- 10 -->
<g id="node4" class="node"><title>10</title>
<ellipse fill="none" stroke="red" cx="38.1072" cy="-207.088" rx="0.5" ry="0.5"/>
</g>
<!-- 0&#45;&#45;10 -->
<g id="edge111" class="edge"><title>0&#45;&#45;10</title>
<path fill="none" stroke="black" stroke-width="0.1" d="M109.63,-194.122C102.18,-195.473 45.837,-205.687 38.8232,-206.959"/>
</g>
<!-- 16 -->
<g id="node5" class="node"><title>16</title>
<ellipse fill="none" stroke="red" cx="70.6693" cy="-99.0719" rx="0.5" ry="0.5"/>
</g>
<!-- 0&#45;&#45;16 -->
<g id="edge125" class="edge"><title>0&#45;&#45;16</title>
<path fill="none" stroke="black" stroke-width="0.1" d="M110.189,-193.369C106.96,-185.665 73.9848,-106.983 70.9004,-99.6233"/>
</g>
<!-- 36 -->
<g id="node6" class="node"><title>36</title>
<ellipse fill="none" stroke="red" cx="51.8213" cy="-228.236" rx="0.5" ry="0.5"/>
</g>
<!-- 0&#45;&#45;36 -->
<g id="edge30" class="edge"><title>0&#45;&#45;36</title>
<path fill="none" stroke="black" stroke-width="0.1" d="M109.784,-194.36C103.747,-197.888 58.0856,-224.575 52.4015,-227.897"/>
</g>
<!-- 13 -->
<g id="node7" class="node"><title>13</title>
<ellipse fill="none" stroke="red" cx="55.3969" cy="-106.779" rx="0.5" ry="0.5"/>
</g>
<!-- 0&#45;&#45;13 -->
<g id="edge118" class="edge"><title>0&#45;&#45;13</title>
<path fill="none" stroke="black" stroke-width="0.1" d="M110.091,-193.418C105.623,-186.34 59.9854,-114.047 55.7167,-107.285"/>
</g>
<!-- 6 -->
<g id="node8" class="node"><title>6</title>
<ellipse fill="none" stroke="red" cx="106.448" cy="-94.0456" rx="0.5" ry="0.5"/>
</g>
<!-- 0&#45;&#45;6 -->
<g id="edge105" class="edge"><title>0&#45;&#45;6</title>
<path fill="none" stroke="black" stroke-width="0.1" d="M110.417,-193.337C110.093,-185.225 106.781,-102.376 106.471,-94.6262"/>
</g>
<!-- 27 -->
<g id="node9" class="node"><title>27</title>
<ellipse fill="none" stroke="red" cx="122.488" cy="-123.111" rx="0.5" ry="0.5"/>
</g>
<!-- 0&#45;&#45;27 -->
<g id="edge8" class="edge"><title>0&#45;&#45;27</title>
<path fill="none" stroke="black" stroke-width="0.1" d="M110.578,-193.179C111.819,-185.88 121.201,-130.684 122.369,-123.813"/>
</g>
<!-- 37 -->
<g id="node10" class="node"><title>37</title>
<ellipse fill="none" stroke="red" cx="179.259" cy="-127.217" rx="0.5" ry="0.5"/>
</g>
<!-- 0&#45;&#45;37 -->
<g id="edge32" class="edge"><title>0&#45;&#45;37</title>
<path fill="none" stroke="black" stroke-width="0.1" d="M110.882,-193.549C116.468,-188.129 173.523,-132.782 178.859,-127.605"/>
</g>
<!-- 64 -->
<g id="node11" class="node"><title>64</title>
<ellipse fill="none" stroke="red" cx="171.808" cy="-106.595" rx="0.5" ry="0.5"/>
</g>
<!-- 0&#45;&#45;64 -->
<g id="edge93" class="edge"><title>0&#45;&#45;64</title>
<path fill="none" stroke="black" stroke-width="0.1" d="M110.835,-193.417C115.816,-186.324 166.692,-113.879 171.451,-107.103"/>
</g>
<!-- 34 -->
<g id="node12" class="node"><title>34</title>
<ellipse fill="none" stroke="red" cx="73.8686" cy="-118.684" rx="0.5" ry="0.5"/>
</g>
<!-- 0&#45;&#45;34 -->
<g id="edge24" class="edge"><title>0&#45;&#45;34</title>
<path fill="none" stroke="black" stroke-width="0.1" d="M110.209,-193.494C107.289,-187.483 77.9042,-126.991 74.2425,-119.453"/>
</g>
<!-- 32 -->
<g id="node13" class="node"><title>32</title>
<ellipse fill="none" stroke="red" cx="184.603" cy="-112.765" rx="0.5" ry="0.5"/>
</g>
<!-- 0&#45;&#45;32 -->
<g id="edge22" class="edge"><title>0&#45;&#45;32</title>
<path fill="none" stroke="black" stroke-width="0.1" d="M110.916,-193.456C116.936,-186.864 178.421,-119.535 184.172,-113.237"/>
</g>
<!-- 28 -->
<g id="node14" class="node"><title>28</title>
<ellipse fill="none" stroke="red" cx="207.784" cy="-222.376" rx="0.5" ry="0.5"/>
</g>
<!-- 0&#45;&#45;28 -->
<g id="edge14" class="edge"><title>0&#45;&#45;28</title>
<path fill="none" stroke="black" stroke-width="0.1" d="M111.064,-194.156C118.966,-196.462 199.67,-220.008 207.218,-222.211"/>
</g>
<!-- 39 -->
<g id="node15" class="node"><title>39</title>
<ellipse fill="none" stroke="red" cx="175.039" cy="-251.99" rx="0.5" ry="0.5"/>
</g>
<!-- 0&#45;&#45;39 -->
<g id="edge40" class="edge"><title>0&#45;&#45;39</title>
<path fill="none" stroke="black" stroke-width="0.1" d="M110.855,-194.345C116.013,-198.978 167.912,-245.589 174.379,-251.397"/>
</g>
<!-- 29 -->
<g id="node16" class="node"><title>29</title>
<ellipse fill="none" stroke="red" cx="202.452" cy="-145.233" rx="0.5" ry="0.5"/>
</g>
<!-- 0&#45;&#45;29 -->
<g id="edge17" class="edge"><title>0&#45;&#45;29</title>
<path fill="none" stroke="black" stroke-width="0.1" d="M111.03,-193.664C118.499,-189.707 194.782,-149.296 201.918,-145.516"/>
</g>
<!-- 30 -->
<g id="node17" class="node"><title>30</title>
<ellipse fill="none" stroke="red" cx="141.716" cy="-171.72" rx="0.5" ry="0.5"/>
</g>
<!-- 0&#45;&#45;30 -->
<g id="edge18" class="edge"><title>0&#45;&#45;30</title>
<path fill="none" stroke="black" stroke-width="0.1" d="M111.216,-193.425C115.58,-190.319 137.084,-175.017 141.078,-172.175"/>
</g>
<!-- 31 -->
<g id="node18" class="node"><title>31</title>
<ellipse fill="none" stroke="red" cx="70.387" cy="-195.133" rx="0.5" ry="0.5"/>
</g>
<!-- 0&#45;&#45;31 -->
<g id="edge21" class="edge"><title>0&#45;&#45;31</title>
<path fill="none" stroke="black" stroke-width="0.1" d="M109.748,-193.995C104.927,-194.134 76.5173,-194.956 71.2328,-195.108"/>
</g>
<!-- 33 -->
<g id="node19" class="node"><title>33</title>
<ellipse fill="none" stroke="red" cx="3.07802" cy="-197.045" rx="0.5" ry="0.5"/>
</g>
<!-- 0&#45;&#45;33 -->
<g id="edge23" class="edge"><title>0&#45;&#45;33</title>
<path fill="none" stroke="black" stroke-width="0.1" d="M109.757,-193.994C101.042,-194.244 12.0277,-196.789 3.7018,-197.028"/>
</g>
<!-- 41 -->
<g id="node20" class="node"><title>41</title>
<ellipse fill="none" stroke="red" cx="26.5885" cy="-152.122" rx="0.5" ry="0.5"/>
</g>
<!-- 0&#45;&#45;41 -->
<g id="edge46" class="edge"><title>0&#45;&#45;41</title>
<path fill="none" stroke="black" stroke-width="0.1" d="M109.907,-193.708C103.1,-190.31 33.5784,-155.61 27.0756,-152.365"/>
</g>
<!-- 45 -->
<g id="node21" class="node"><title>45</title>
<ellipse fill="none" stroke="red" cx="20.9518" cy="-135.621" rx="0.5" ry="0.5"/>
</g>
<!-- 0&#45;&#45;45 -->
<g id="edge53" class="edge"><title>0&#45;&#45;45</title>
<path fill="none" stroke="black" stroke-width="0.1" d="M109.871,-193.602C102.607,-188.865 28.4116,-140.485 21.4718,-135.96"/>
</g>
<!-- 35 -->
<g id="node22" class="node"><title>35</title>
<ellipse fill="none" stroke="red" cx="17.2683" cy="-206.119" rx="0.5" ry="0.5"/>
</g>
<!-- 0&#45;&#45;35 -->
<g id="edge27" class="edge"><title>0&#45;&#45;35</title>
<path fill="none" stroke="black" stroke-width="0.1" d="M109.848,-194.052C102.284,-195.038 25.0351,-205.106 17.8096,-206.048"/>
</g>
<!-- 24 -->
<g id="node23" class="node"><title>24</title>
<ellipse fill="none" stroke="red" cx="42.9519" cy="-252.277" rx="0.5" ry="0.5"/>
</g>
<!-- 0&#45;&#45;24 -->
<g id="edge146" class="edge"><title>0&#45;&#45;24</title>
<path fill="none" stroke="black" stroke-width="0.1" d="M109.851,-193.389C96.7935,-182.34 33.3943,-237.113 42.4648,-251.617"/>
</g>
<!-- 0&#45;&#45;24 -->
<g id="edge147" class="edge"><title>0&#45;&#45;24</title>
<path fill="none" stroke="black" stroke-width="0.1" d="M110.937,-194.646C119.971,-209.17 56.566,-263.937 43.534,-252.855"/>
</g>
<!-- 0&#45;&#45;24 -->
<g id="edge149" class="edge"><title>0&#45;&#45;24</title>
<path fill="none" stroke="black" stroke-width="0.1" d="M110.012,-194.347C104.533,-199.08 48.5778,-247.417 43.3441,-251.938"/>
</g>
<!-- 14 -->
<g id="node24" class="node"><title>14</title>
<ellipse fill="none" stroke="red" cx="100.453" cy="-273.817" rx="0.5" ry="0.5"/>
</g>
<!-- 0&#45;&#45;14 -->
<g id="edge120" class="edge"><title>0&#45;&#45;14</title>
<path fill="none" stroke="black" stroke-width="0.1" d="M110.379,-194.485C109.581,-200.86 101.555,-265.007 100.555,-273"/>
</g>
<!-- 38 -->
<g id="node25" class="node"><title>38</title>
<ellipse fill="none" stroke="red" cx="166.466" cy="-190.106" rx="0.5" ry="0.5"/>
</g>
<!-- 0&#45;&#45;38 -->
<g id="edge35" class="edge"><title>0&#45;&#45;38</title>
<path fill="none" stroke="black" stroke-width="0.1" d="M111.072,-193.931C116.842,-193.533 160.479,-190.52 165.911,-190.145"/>
</g>
<!-- 40 -->
<g id="node26" class="node"><title>40</title>
<ellipse fill="none" stroke="red" cx="135.555" cy="-92.4711" rx="0.5" ry="0.5"/>
</g>
<!-- 0&#45;&#45;40 -->
<g id="edge41" class="edge"><title>0&#45;&#45;40</title>
<path fill="none" stroke="black" stroke-width="0.1" d="M110.603,-193.327C112.642,-185.087 133.462,-100.932 135.409,-93.0609"/>
</g>
<!-- 47 -->
<g id="node27" class="node"><title>47</title>
<ellipse fill="none" stroke="red" cx="191.697" cy="-260.312" rx="0.5" ry="0.5"/>
</g>
<!-- 0&#45;&#45;47 -->
<g id="edge58" class="edge"><title>0&#45;&#45;47</title>
<path fill="none" stroke="black" stroke-width="0.1" d="M110.962,-194.398C117.557,-199.783 184.924,-254.782 191.225,-259.927"/>
</g>
<!-- 46 -->
<g id="node28" class="node"><title>46</title>
<ellipse fill="none" stroke="red" cx="122.691" cy="-251.974" rx="0.5" ry="0.5"/>
</g>
<!-- 0&#45;&#45;46 -->
<g id="edge55" class="edge"><title>0&#45;&#45;46</title>
<path fill="none" stroke="black" stroke-width="0.1" d="M110.58,-194.626C111.842,-200.6 121.382,-245.776 122.569,-251.4"/>
</g>
<!-- 56 -->
<g id="node29" class="node"><title>56</title>
<ellipse fill="none" stroke="red" cx="98.343" cy="-108.647" rx="0.5" ry="0.5"/>
</g>
<!-- 0&#45;&#45;56 -->
<g id="edge77" class="edge"><title>0&#45;&#45;56</title>
<path fill="none" stroke="black" stroke-width="0.1" d="M110.366,-193.43C109.383,-186.504 99.3516,-115.76 98.4133,-109.143"/>
</g>
<!-- 55 -->
<g id="node30" class="node"><title>55</title>
<ellipse fill="none" stroke="red" cx="124.094" cy="-150.926" rx="0.5" ry="0.5"/>
</g>
<!-- 0&#45;&#45;55 -->
<g id="edge74" class="edge"><title>0&#45;&#45;55</title>
<path fill="none" stroke="black" stroke-width="0.1" d="M110.596,-193.491C111.979,-189.131 122.283,-156.636 123.885,-151.585"/>
</g>
<!-- 42 -->
<g id="node31" class="node"><title>42</title>
<ellipse fill="none" stroke="red" cx="138.112" cy="-195.592" rx="0.5" ry="0.5"/>
</g>
<!-- 0&#45;&#45;42 -->
<g id="edge47" class="edge"><title>0&#45;&#45;42</title>
<path fill="none" stroke="black" stroke-width="0.1" d="M111.127,-194.015C114.988,-194.241 134.013,-195.353 137.546,-195.559"/>
</g>
<!-- 43 -->
<g id="node32" class="node"><title>43</title>
<ellipse fill="none" stroke="red" cx="76.9715" cy="-161.891" rx="0.5" ry="0.5"/>
</g>
<!-- 0&#45;&#45;43 -->
<g id="edge48" class="edge"><title>0&#45;&#45;43</title>
<path fill="none" stroke="black" stroke-width="0.1" d="M110.067,-193.615C106.734,-190.42 82.2612,-166.962 77.7018,-162.591"/>
</g>
<!-- 44 -->
<g id="node33" class="node"><title>44</title>
<ellipse fill="none" stroke="red" cx="40.01" cy="-114.352" rx="0.5" ry="0.5"/>
</g>
<!-- 0&#45;&#45;44 -->
<g id="edge50" class="edge"><title>0&#45;&#45;44</title>
<path fill="none" stroke="black" stroke-width="0.1" d="M109.993,-193.466C104.276,-187.003 45.8811,-120.989 40.4192,-114.814"/>
</g>
<!-- 53 -->
<g id="node34" class="node"><title>53</title>
<ellipse fill="none" stroke="red" cx="54.0056" cy="-269.776" rx="0.5" ry="0.5"/>
</g>
<!-- 0&#45;&#45;53 -->
<g id="edge70" class="edge"><title>0&#45;&#45;53</title>
<path fill="none" stroke="black" stroke-width="0.1" d="M110.082,-194.459C105.501,-200.612 58.7101,-263.458 54.3335,-269.336"/>
</g>
<!-- 54 -->
<g id="node35" class="node"><title>54</title>
<ellipse fill="none" stroke="red" cx="165.637" cy="-286.914" rx="0.5" ry="0.5"/>
</g>
<!-- 0&#45;&#45;54 -->
<g id="edge72" class="edge"><title>0&#45;&#45;54</title>
<path fill="none" stroke="black" stroke-width="0.1" d="M110.795,-194.568C115.276,-202.113 161.036,-279.167 165.317,-286.374"/>
</g>
<!-- 48 -->
<g id="node36" class="node"><title>48</title>
<ellipse fill="none" stroke="red" cx="147.203" cy="-288.714" rx="0.5" ry="0.5"/>
</g>
<!-- 0&#45;&#45;48 -->
<g id="edge60" class="edge"><title>0&#45;&#45;48</title>
<path fill="none" stroke="black" stroke-width="0.1" d="M110.678,-194.58C113.661,-202.27 144.138,-280.817 146.989,-288.163"/>
</g>
<!-- 49 -->
<g id="node37" class="node"><title>49</title>
<ellipse fill="none" stroke="red" cx="81.2521" cy="-272.267" rx="0.5" ry="0.5"/>
</g>
<!-- 0&#45;&#45;49 -->
<g id="edge62" class="edge"><title>0&#45;&#45;49</title>
<path fill="none" stroke="black" stroke-width="0.1" d="M110.256,-194.475C107.926,-200.726 84.473,-263.628 81.5505,-271.467"/>
</g>
<!-- 51 -->
<g id="node38" class="node"><title>51</title>
<ellipse fill="none" stroke="red" cx="129.513" cy="-297.437" rx="0.5" ry="0.5"/>
</g>
<!-- 0&#45;&#45;51 -->
<g id="edge67" class="edge"><title>0&#45;&#45;51</title>
<path fill="none" stroke="black" stroke-width="0.1" d="M110.565,-194.636C112.113,-203.034 127.923,-288.813 129.402,-296.836"/>
</g>
<!-- 50 -->
<g id="node39" class="node"><title>50</title>
<ellipse fill="none" stroke="red" cx="22.0582" cy="-238.209" rx="0.5" ry="0.5"/>
</g>
<!-- 0&#45;&#45;50 -->
<g id="edge65" class="edge"><title>0&#45;&#45;50</title>
<path fill="none" stroke="black" stroke-width="0.1" d="M109.878,-194.257C102.704,-197.848 29.4258,-234.521 22.5717,-237.952"/>
</g>
<!-- 2 -->
<g id="node40" class="node"><title>2</title>
<ellipse fill="none" stroke="red" cx="7.89559" cy="-178.841" rx="0.5" ry="0.5"/>
</g>
<!-- 0&#45;&#45;2 -->
<g id="edge101" class="edge"><title>0&#45;&#45;2</title>
<path fill="none" stroke="black" stroke-width="0.1" d="M109.788,-193.878C101.464,-192.65 16.4437,-180.102 8.49139,-178.929"/>
</g>
<!-- 52 -->
<g id="node41" class="node"><title>52</title>
<ellipse fill="none" stroke="red" cx="74.0795" cy="-292.416" rx="0.5" ry="0.5"/>
</g>
<!-- 0&#45;&#45;52 -->
<g id="edge69" class="edge"><title>0&#45;&#45;52</title>
<path fill="none" stroke="black" stroke-width="0.1" d="M110.211,-194.603C107.259,-202.594 77.1107,-284.21 74.2908,-291.844"/>
</g>
<!-- 62 -->
<g id="node42" class="node"><title>62</title>
<ellipse fill="none" stroke="red" cx="165.129" cy="-221.881" rx="0.5" ry="0.5"/>
</g>
<!-- 0&#45;&#45;62 -->
<g id="edge89" class="edge"><title>0&#45;&#45;62</title>
<path fill="none" stroke="black" stroke-width="0.1" d="M111.057,-194.288C116.689,-197.163 159.285,-218.899 164.588,-221.605"/>
</g>
<!-- 63 -->
<g id="node43" class="node"><title>63</title>
<ellipse fill="none" stroke="red" cx="52.5851" cy="-133.504" rx="0.5" ry="0.5"/>
</g>
<!-- 0&#45;&#45;63 -->
<g id="edge91" class="edge"><title>0&#45;&#45;63</title>
<path fill="none" stroke="black" stroke-width="0.1" d="M110.073,-193.589C105.454,-188.76 58.9691,-140.177 53.1766,-134.123"/>
</g>
<!-- 57 -->
<g id="node44" class="node"><title>57</title>
<ellipse fill="none" stroke="red" cx="163.264" cy="-138.483" rx="0.5" ry="0.5"/>
</g>
<!-- 0&#45;&#45;57 -->
<g id="edge79" class="edge"><title>0&#45;&#45;57</title>
<path fill="none" stroke="black" stroke-width="0.1" d="M111.036,-193.352C116.476,-187.636 157.619,-144.413 162.741,-139.033"/>
</g>
<!-- 58 -->
<g id="node45" class="node"><title>58</title>
<ellipse fill="none" stroke="red" cx="192.003" cy="-194.305" rx="0.5" ry="0.5"/>
</g>
<!-- 0&#45;&#45;58 -->
<g id="edge81" class="edge"><title>0&#45;&#45;58</title>
<path fill="none" stroke="black" stroke-width="0.1" d="M110.964,-193.977C117.476,-194.003 183.004,-194.268 191.17,-194.301"/>
</g>
<!-- 60 -->
<g id="node46" class="node"><title>60</title>
<ellipse fill="none" stroke="red" cx="166.494" cy="-268.212" rx="0.5" ry="0.5"/>
</g>
<!-- 0&#45;&#45;60 -->
<g id="edge86" class="edge"><title>0&#45;&#45;60</title>
<path fill="none" stroke="black" stroke-width="0.1" d="M110.801,-194.449C115.351,-200.475 161.821,-262.024 166.168,-267.781"/>
</g>
<!-- 59 -->
<g id="node47" class="node"><title>59</title>
<ellipse fill="none" stroke="red" cx="218.591" cy="-214.81" rx="0.5" ry="0.5"/>
</g>
<!-- 0&#45;&#45;59 -->
<g id="edge84" class="edge"><title>0&#45;&#45;59</title>
<path fill="none" stroke="black" stroke-width="0.1" d="M111.133,-194.108C119.912,-195.799 209.576,-213.073 217.963,-214.689"/>
</g>
<!-- 3 -->
<g id="node48" class="node"><title>3</title>
<ellipse fill="none" stroke="red" cx="210.25" cy="-157.769" rx="0.5" ry="0.5"/>
</g>
<!-- 0&#45;&#45;3 -->
<g id="edge102" class="edge"><title>0&#45;&#45;3</title>
<path fill="none" stroke="black" stroke-width="0.1" d="M111.08,-193.744C119.182,-190.805 201.93,-160.787 209.67,-157.979"/>
</g>
<!-- 61 -->
<g id="node49" class="node"><title>61</title>
<ellipse fill="none" stroke="red" cx="204.548" cy="-249.153" rx="0.5" ry="0.5"/>
</g>
<!-- 0&#45;&#45;61 -->
<g id="edge88" class="edge"><title>0&#45;&#45;61</title>
<path fill="none" stroke="black" stroke-width="0.1" d="M111.044,-194.327C118.683,-198.806 196.704,-244.553 204.002,-248.832"/>
</g>
<!-- 65 -->
<g id="node50" class="node"><title>65</title>
<ellipse fill="none" stroke="red" cx="213.016" cy="-172.123" rx="0.5" ry="0.5"/>
</g>
<!-- 0&#45;&#45;65 -->
<g id="edge95" class="edge"><title>0&#45;&#45;65</title>
<path fill="none" stroke="black" stroke-width="0.1" d="M111.098,-193.835C119.424,-192.061 204.465,-173.944 212.42,-172.25"/>
</g>
<!-- 66 -->
<g id="node51" class="node"><title>66</title>
<ellipse fill="none" stroke="red" cx="159.449" cy="-237.858" rx="0.5" ry="0.5"/>
</g>
<!-- 0&#45;&#45;66 -->
<g id="edge98" class="edge"><title>0&#45;&#45;66</title>
<path fill="none" stroke="black" stroke-width="0.1" d="M110.993,-194.468C116.041,-198.988 154.213,-233.169 158.964,-237.424"/>
</g>
<!-- 68 -->
<g id="node53" class="node"><title>68</title>
<ellipse fill="none" stroke="red" cx="112.993" cy="-298.779" rx="0.5" ry="0.5"/>
</g>
<!-- 0&#45;&#45;68 -->
<g id="edge99" class="edge"><title>0&#45;&#45;68</title>
<path fill="none" stroke="black" stroke-width="0.1" d="M110.459,-194.644C110.666,-203.152 112.78,-290.043 112.978,-298.17"/>
</g>
<!-- 1 -->
<g id="node54" class="node"><title>1</title>
<ellipse fill="none" stroke="red" cx="93.1316" cy="-298.047" rx="0.5" ry="0.5"/>
</g>
<!-- 0&#45;&#45;1 -->
<g id="edge100" class="edge"><title>0&#45;&#45;1</title>
<path fill="none" stroke="black" stroke-width="0.1" d="M110.332,-194.639C108.927,-203.087 94.5746,-289.372 93.2321,-297.442"/>
</g>
<!-- 4 -->
<g id="node55" class="node"><title>4</title>
<ellipse fill="none" stroke="red" cx="129.209" cy="-275.184" rx="0.5" ry="0.5"/>
</g>
<!-- 0&#45;&#45;4 -->
<g id="edge103" class="edge"><title>0&#45;&#45;4</title>
<path fill="none" stroke="black" stroke-width="0.1" d="M110.563,-194.493C112.061,-200.978 127.139,-266.224 129.017,-274.354"/>
</g>
<!-- 5 -->
<g id="node56" class="node"><title>5</title>
<ellipse fill="none" stroke="red" cx="33.5779" cy="-182.891" rx="0.5" ry="0.5"/>
</g>
<!-- 0&#45;&#45;5 -->
<g id="edge104" class="edge"><title>0&#45;&#45;5</title>
<path fill="none" stroke="black" stroke-width="0.1" d="M109.58,-193.85C101.663,-192.709 41.7916,-184.076 34.3387,-183.001"/>
</g>
<!-- 7 -->
<g id="node57" class="node"><title>7</title>
<ellipse fill="none" stroke="red" cx="9.89856" cy="-156.57" rx="0.5" ry="0.5"/>
</g>
<!-- 0&#45;&#45;7 -->
<g id="edge106" class="edge"><title>0&#45;&#45;7</title>
<path fill="none" stroke="black" stroke-width="0.1" d="M109.801,-193.736C101.639,-190.7 18.2797,-159.688 10.4827,-156.787"/>
</g>
<!-- 8 -->
<g id="node58" class="node"><title>8</title>
<ellipse fill="none" stroke="red" cx="51.6035" cy="-283.793" rx="0.5" ry="0.5"/>
</g>
<!-- 0&#45;&#45;8 -->
<g id="edge107" class="edge"><title>0&#45;&#45;8</title>
<path fill="none" stroke="black" stroke-width="0.1" d="M110.067,-194.548C105.291,-201.839 56.5082,-276.306 51.9453,-283.271"/>
</g>
<!-- 9 -->
<g id="node59" class="node"><title>9</title>
<ellipse fill="none" stroke="red" cx="91.7707" cy="-228.854" rx="0.5" ry="0.5"/>
</g>
<!-- 0&#45;&#45;9 -->
<g id="edge108" class="edge"><title>0&#45;&#45;9</title>
<path fill="none" stroke="black" stroke-width="0.1" d="M109.981,-194.837C107.375,-199.705 94.5365,-223.687 92.1521,-228.141"/>
</g>
<!-- 11 -->
<g id="node60" class="node"><title>11</title>
<ellipse fill="none" stroke="red" cx="6.4354" cy="-225.466" rx="0.5" ry="0.5"/>
</g>
<!-- 0&#45;&#45;11 -->
<g id="edge113" class="edge"><title>0&#45;&#45;11</title>
<path fill="none" stroke="black" stroke-width="0.1" d="M109.779,-194.176C101.336,-196.732 15.1052,-222.841 7.03967,-225.283"/>
</g>
<!-- 12 -->
<g id="node61" class="node"><title>12</title>
<ellipse fill="none" stroke="red" cx="26.0814" cy="-260.282" rx="0.5" ry="0.5"/>
</g>
<!-- 0&#45;&#45;12 -->
<g id="edge116" class="edge"><title>0&#45;&#45;12</title>
<path fill="none" stroke="black" stroke-width="0.1" d="M109.904,-194.398C103.056,-199.781 33.1136,-254.755 26.5715,-259.897"/>
</g>
<!-- 15 -->
<g id="node62" class="node"><title>15</title>
<ellipse fill="none" stroke="red" cx="73.8816" cy="-240.893" rx="0.5" ry="0.5"/>
</g>
<!-- 0&#45;&#45;15 -->
<g id="edge122" class="edge"><title>0&#45;&#45;15</title>
<path fill="none" stroke="black" stroke-width="0.1" d="M110.032,-194.502C106.267,-199.334 77.7885,-235.879 74.2434,-240.428"/>
</g>
<!-- 17 -->
<g id="node63" class="node"><title>17</title>
<ellipse fill="none" stroke="red" cx="104.296" cy="-142.208" rx="0.5" ry="0.5"/>
</g>
<!-- 0&#45;&#45;17 -->
<g id="edge127" class="edge"><title>0&#45;&#45;17</title>
<path fill="none" stroke="black" stroke-width="0.1" d="M110.374,-193.393C109.741,-188.062 104.953,-147.74 104.357,-142.72"/>
</g>
<!-- 18 -->
<g id="node64" class="node"><title>18</title>
<ellipse fill="none" stroke="red" cx="182.134" cy="-212.484" rx="0.5" ry="0.5"/>
</g>
<!-- 0&#45;&#45;18 -->
<g id="edge130" class="edge"><title>0&#45;&#45;18</title>
<path fill="none" stroke="black" stroke-width="0.1" d="M111.248,-194.183C118.632,-196.089 174.473,-210.507 181.424,-212.301"/>
</g>
<!-- 19 -->
<g id="node65" class="node"><title>19</title>
<ellipse fill="none" stroke="red" cx="94.0971" cy="-83.5418" rx="0.5" ry="0.5"/>
</g>
<!-- 0&#45;&#45;19 -->
<g id="edge131" class="edge"><title>0&#45;&#45;19</title>
<path fill="none" stroke="black" stroke-width="0.1" d="M110.338,-193.27C109.012,-184.305 95.4596,-92.7473 94.192,-84.1834"/>
</g>
<!-- 20 -->
<g id="node67" class="node"><title>20</title>
<ellipse fill="none" stroke="red" cx="142.694" cy="-118.527" rx="0.5" ry="0.5"/>
</g>
<!-- 0&#45;&#45;20 -->
<g id="edge134" class="edge"><title>0&#45;&#45;20</title>
<path fill="none" stroke="black" stroke-width="0.1" d="M110.649,-193.493C113.224,-187.469 139.136,-126.852 142.365,-119.298"/>
</g>
<!-- 22 -->
<g id="node68" class="node"><title>22</title>
<ellipse fill="none" stroke="red" cx="181.047" cy="-154.152" rx="0.5" ry="0.5"/>
</g>
<!-- 0&#45;&#45;22 -->
<g id="edge137" class="edge"><title>0&#45;&#45;22</title>
<path fill="none" stroke="black" stroke-width="0.1" d="M110.894,-193.721C116.531,-190.541 173.256,-158.546 180.325,-154.559"/>
</g>
<!-- 23 -->
<g id="node69" class="node"><title>23</title>
<ellipse fill="none" stroke="red" cx="148.051" cy="-96.0832" rx="0.5" ry="0.5"/>
</g>
<!-- 0&#45;&#45;23 -->
<g id="edge140" class="edge"><title>0&#45;&#45;23</title>
<path fill="none" stroke="black" stroke-width="0.1" d="M110.683,-193.35C113.736,-185.403 144.916,-104.243 147.833,-96.652"/>
</g>
<!-- 26&#45;&#45;10 -->
<g id="edge3" class="edge"><title>26&#45;&#45;10</title>
<path fill="none" stroke="black" stroke-width="0.1" d="M56.0945,-161.195C54.2521,-165.896 40.5201,-200.932 38.3857,-206.378"/>
</g>
<!-- 26&#45;&#45;16 -->
<g id="edge4" class="edge"><title>26&#45;&#45;16</title>
<path fill="none" stroke="black" stroke-width="0.1" d="M56.4602,-159.982C57.9403,-153.637 69.1337,-105.655 70.5271,-99.6816"/>
</g>
<!-- 26&#45;&#45;36 -->
<g id="edge5" class="edge"><title>26&#45;&#45;36</title>
<path fill="none" stroke="black" stroke-width="0.1" d="M56.2486,-161.433C55.7874,-168.391 52.2998,-221.016 51.8657,-227.567"/>
</g>
<!-- 26&#45;&#45;13 -->
<g id="edge6" class="edge"><title>26&#45;&#45;13</title>
<path fill="none" stroke="black" stroke-width="0.1" d="M56.2887,-160.069C56.1958,-154.517 55.4932,-112.538 55.4058,-107.312"/>
</g>
<!-- 26&#45;&#45;6 -->
<g id="edge7" class="edge"><title>26&#45;&#45;6</title>
<path fill="none" stroke="black" stroke-width="0.1" d="M56.6191,-160.248C60.6232,-154.928 100.915,-101.397 105.935,-94.7268"/>
</g>
<!-- 10&#45;&#45;11 -->
<g id="edge112" class="edge"><title>10&#45;&#45;11</title>
<path fill="none" stroke="black" stroke-width="0.1" d="M37.6062,-206.434C31.8324,-200.629 3.88568,-216.855 6.12291,-224.731"/>
</g>
<!-- 16&#45;&#45;17 -->
<g id="edge126" class="edge"><title>16&#45;&#45;17</title>
<path fill="none" stroke="black" stroke-width="0.1" d="M71.047,-99.5563C74.5105,-103.999 100.703,-137.598 103.964,-141.781"/>
</g>
<!-- 36&#45;&#45;14 -->
<g id="edge31" class="edge"><title>36&#45;&#45;14</title>
<path fill="none" stroke="black" stroke-width="0.1" d="M52.3675,-228.748C57.3764,-233.442 95.2559,-268.946 99.9713,-273.365"/>
</g>
<!-- 13&#45;&#45;27 -->
<g id="edge119" class="edge"><title>13&#45;&#45;27</title>
<path fill="none" stroke="black" stroke-width="0.1" d="M55.396,-107.62C57.3353,-116.241 116.546,-130.647 122.12,-123.837"/>
</g>
<!-- 27&#45;&#45;13 -->
<g id="edge9" class="edge"><title>27&#45;&#45;13</title>
<path fill="none" stroke="black" stroke-width="0.1" d="M122.489,-122.27C120.55,-113.649 61.3388,-99.2426 55.7651,-106.052"/>
</g>
<!-- 27&#45;&#45;37 -->
<g id="edge10" class="edge"><title>27&#45;&#45;37</title>
<path fill="none" stroke="black" stroke-width="0.1" d="M123.126,-123.157C128.973,-123.58 173.193,-126.778 178.697,-127.176"/>
</g>
<!-- 27&#45;&#45;64 -->
<g id="edge11" class="edge"><title>27&#45;&#45;64</title>
<path fill="none" stroke="black" stroke-width="0.1" d="M123.042,-122.926C128.122,-121.225 166.537,-108.36 171.32,-106.759"/>
</g>
<!-- 27&#45;&#45;34 -->
<g id="edge12" class="edge"><title>27&#45;&#45;34</title>
<path fill="none" stroke="black" stroke-width="0.1" d="M121.942,-123.062C117.018,-122.613 80.3172,-119.271 74.6128,-118.752"/>
</g>
<!-- 27&#45;&#45;32 -->
<g id="edge13" class="edge"><title>27&#45;&#45;32</title>
<path fill="none" stroke="black" stroke-width="0.1" d="M123.186,-122.995C129.583,-121.93 177.965,-113.871 183.988,-112.868"/>
</g>
<!-- 37&#45;&#45;38 -->
<g id="edge33" class="edge"><title>37&#45;&#45;38</title>
<path fill="none" stroke="black" stroke-width="0.1" d="M179.115,-127.923C177.798,-134.401 167.833,-183.386 166.592,-189.484"/>
</g>
<!-- 37&#45;&#45;40 -->
<g id="edge34" class="edge"><title>37&#45;&#45;40</title>
<path fill="none" stroke="black" stroke-width="0.1" d="M178.768,-126.827C174.267,-123.248 140.225,-96.184 135.988,-92.815"/>
</g>
<!-- 64&#45;&#45;65 -->
<g id="edge94" class="edge"><title>64&#45;&#45;65</title>
<path fill="none" stroke="black" stroke-width="0.1" d="M172.27,-107.331C176.515,-114.08 208.612,-165.12 212.608,-171.474"/>
</g>
<!-- 34&#45;&#45;41 -->
<g id="edge25" class="edge"><title>34&#45;&#45;41</title>
<path fill="none" stroke="black" stroke-width="0.1" d="M73.3376,-119.059C68.4679,-122.503 31.6408,-148.548 27.0564,-151.791"/>
</g>
<!-- 34&#45;&#45;45 -->
<g id="edge26" class="edge"><title>34&#45;&#45;45</title>
<path fill="none" stroke="black" stroke-width="0.1" d="M73.2743,-118.874C67.824,-120.618 26.6065,-133.811 21.4756,-135.453"/>
</g>
<!-- 28&#45;&#45;39 -->
<g id="edge15" class="edge"><title>28&#45;&#45;39</title>
<path fill="none" stroke="black" stroke-width="0.1" d="M206.975,-223.108C202.405,-227.241 179.89,-247.604 175.708,-251.385"/>
</g>
<!-- 28&#45;&#45;29 -->
<g id="edge16" class="edge"><title>28&#45;&#45;29</title>
<path fill="none" stroke="black" stroke-width="0.1" d="M207.724,-221.509C207.175,-213.564 203.022,-153.476 202.505,-145.996"/>
</g>
<!-- 30&#45;&#45;39 -->
<g id="edge19" class="edge"><title>30&#45;&#45;39</title>
<path fill="none" stroke="black" stroke-width="0.1" d="M141.929,-172.233C144.634,-178.748 172.262,-245.299 174.846,-251.524"/>
</g>
<!-- 30&#45;&#45;31 -->
<g id="edge20" class="edge"><title>30&#45;&#45;31</title>
<path fill="none" stroke="black" stroke-width="0.1" d="M140.915,-171.983C133.569,-174.394 78.0092,-192.631 71.0929,-194.901"/>
</g>
<!-- 45&#45;&#45;44 -->
<g id="edge54" class="edge"><title>45&#45;&#45;44</title>
<path fill="none" stroke="black" stroke-width="0.1" d="M21.4229,-135.095C24.0826,-132.127 37.187,-117.502 39.6207,-114.786"/>
</g>
<!-- 35&#45;&#45;26 -->
<g id="edge29" class="edge"><title>35&#45;&#45;26</title>
<path fill="none" stroke="black" stroke-width="0.1" d="M17.7066,-205.608C21.7266,-200.928 52.1281,-165.53 55.9125,-161.124"/>
</g>
<!-- 35&#45;&#45;24 -->
<g id="edge28" class="edge"><title>35&#45;&#45;24</title>
<path fill="none" stroke="black" stroke-width="0.1" d="M17.5567,-206.637C20.202,-211.391 40.2074,-247.344 42.6977,-251.82"/>
</g>
<!-- 14&#45;&#45;15 -->
<g id="edge121" class="edge"><title>14&#45;&#45;15</title>
<path fill="none" stroke="black" stroke-width="0.1" d="M99.7958,-273.003C96.0877,-268.408 77.8175,-245.769 74.4244,-241.565"/>
</g>
<!-- 38&#45;&#45;27 -->
<g id="edge37" class="edge"><title>38&#45;&#45;27</title>
<path fill="none" stroke="black" stroke-width="0.1" d="M166.185,-189.679C162.673,-184.329 127.341,-130.504 122.938,-123.796"/>
</g>
<!-- 38&#45;&#45;28 -->
<g id="edge38" class="edge"><title>38&#45;&#45;28</title>
<path fill="none" stroke="black" stroke-width="0.1" d="M166.93,-190.469C171.185,-193.792 203.369,-218.927 207.375,-222.056"/>
</g>
<!-- 38&#45;&#45;47 -->
<g id="edge36" class="edge"><title>38&#45;&#45;47</title>
<path fill="none" stroke="black" stroke-width="0.1" d="M166.749,-190.895C169.348,-198.126 189.001,-252.81 191.447,-259.617"/>
</g>
<!-- 38&#45;&#45;46 -->
<g id="edge39" class="edge"><title>38&#45;&#45;46</title>
<path fill="none" stroke="black" stroke-width="0.1" d="M165.974,-190.801C161.465,-197.173 127.368,-245.363 123.124,-251.362"/>
</g>
<!-- 40&#45;&#45;27 -->
<g id="edge43" class="edge"><title>40&#45;&#45;27</title>
<path fill="none" stroke="black" stroke-width="0.1" d="M135.232,-93.2285C133.409,-97.5045 124.424,-118.573 122.755,-122.485"/>
</g>
<!-- 40&#45;&#45;30 -->
<g id="edge44" class="edge"><title>40&#45;&#45;30</title>
<path fill="none" stroke="black" stroke-width="0.1" d="M135.595,-92.9772C136.086,-99.3048 141.037,-162.976 141.654,-170.91"/>
</g>
<!-- 40&#45;&#45;56 -->
<g id="edge42" class="edge"><title>40&#45;&#45;56</title>
<path fill="none" stroke="black" stroke-width="0.1" d="M134.909,-92.7519C130.431,-94.6985 104.038,-106.171 99.1288,-108.305"/>
</g>
<!-- 40&#45;&#45;55 -->
<g id="edge45" class="edge"><title>40&#45;&#45;55</title>
<path fill="none" stroke="black" stroke-width="0.1" d="M135.426,-93.1276C134.246,-99.1483 125.319,-144.68 124.207,-150.348"/>
</g>
<!-- 47&#45;&#45;48 -->
<g id="edge59" class="edge"><title>47&#45;&#45;48</title>
<path fill="none" stroke="black" stroke-width="0.1" d="M191.198,-260.631C186.615,-263.556 151.957,-285.679 147.643,-288.433"/>
</g>
<!-- 46&#45;&#45;53 -->
<g id="edge56" class="edge"><title>46&#45;&#45;53</title>
<path fill="none" stroke="black" stroke-width="0.1" d="M121.919,-252.174C114.845,-254.008 61.3452,-267.874 54.6854,-269.6"/>
</g>
<!-- 46&#45;&#45;54 -->
<g id="edge57" class="edge"><title>46&#45;&#45;54</title>
<path fill="none" stroke="black" stroke-width="0.1" d="M123.173,-252.367C127.596,-255.965 161.048,-283.181 165.212,-286.569"/>
</g>
<!-- 56&#45;&#45;57 -->
<g id="edge78" class="edge"><title>56&#45;&#45;57</title>
<path fill="none" stroke="black" stroke-width="0.1" d="M99.0721,-108.982C105.759,-112.055 156.326,-135.295 162.621,-138.188"/>
</g>
<!-- 55&#45;&#45;62 -->
<g id="edge75" class="edge"><title>55&#45;&#45;62</title>
<path fill="none" stroke="black" stroke-width="0.1" d="M124.356,-151.38C127.632,-157.045 160.601,-214.052 164.709,-221.156"/>
</g>
<!-- 55&#45;&#45;63 -->
<g id="edge76" class="edge"><title>55&#45;&#45;63</title>
<path fill="none" stroke="black" stroke-width="0.1" d="M123.291,-150.731C115.926,-148.936 60.2265,-135.366 53.2929,-133.677"/>
</g>
<!-- 43&#45;&#45;42 -->
<g id="edge49" class="edge"><title>43&#45;&#45;42</title>
<path fill="none" stroke="black" stroke-width="0.1" d="M77.6582,-162.27C83.9554,-165.741 131.578,-191.991 137.507,-195.259"/>
</g>
<!-- 44&#45;&#45;41 -->
<g id="edge51" class="edge"><title>44&#45;&#45;41</title>
<path fill="none" stroke="black" stroke-width="0.1" d="M39.777,-115.007C38.1619,-119.553 28.6426,-146.341 26.8719,-151.324"/>
</g>
<!-- 44&#45;&#45;43 -->
<g id="edge52" class="edge"><title>44&#45;&#45;43</title>
<path fill="none" stroke="black" stroke-width="0.1" d="M40.4251,-114.886C44.232,-119.782 73.0219,-156.811 76.6057,-161.421"/>
</g>
<!-- 53&#45;&#45;50 -->
<g id="edge71" class="edge"><title>53&#45;&#45;50</title>
<path fill="none" stroke="black" stroke-width="0.1" d="M53.6468,-269.422C50.466,-266.279 27.1071,-243.198 22.7552,-238.897"/>
</g>
<!-- 54&#45;&#45;47 -->
<g id="edge73" class="edge"><title>54&#45;&#45;47</title>
<path fill="none" stroke="black" stroke-width="0.1" d="M166.281,-286.257C169.918,-282.544 187.837,-264.253 191.165,-260.856"/>
</g>
<!-- 48&#45;&#45;49 -->
<g id="edge61" class="edge"><title>48&#45;&#45;49</title>
<path fill="none" stroke="black" stroke-width="0.1" d="M146.462,-288.529C139.669,-286.835 88.2995,-274.025 81.9048,-272.43"/>
</g>
<!-- 49&#45;&#45;51 -->
<g id="edge63" class="edge"><title>49&#45;&#45;51</title>
<path fill="none" stroke="black" stroke-width="0.1" d="M81.7941,-272.55C86.7648,-275.142 124.355,-294.747 129.035,-297.188"/>
</g>
<!-- 49&#45;&#45;50 -->
<g id="edge64" class="edge"><title>49&#45;&#45;50</title>
<path fill="none" stroke="black" stroke-width="0.1" d="M80.5873,-271.885C74.4905,-268.377 28.3836,-241.848 22.6441,-238.546"/>
</g>
<!-- 51&#45;&#45;52 -->
<g id="edge68" class="edge"><title>51&#45;&#45;52</title>
<path fill="none" stroke="black" stroke-width="0.1" d="M128.89,-297.381C123.181,-296.864 80.003,-292.953 74.6282,-292.466"/>
</g>
<!-- 50&#45;&#45;2 -->
<g id="edge66" class="edge"><title>50&#45;&#45;2</title>
<path fill="none" stroke="black" stroke-width="0.1" d="M21.8992,-237.542C20.4405,-231.427 9.409,-185.185 8.03577,-179.428"/>
</g>
<!-- 62&#45;&#45;59 -->
<g id="edge90" class="edge"><title>62&#45;&#45;59</title>
<path fill="none" stroke="black" stroke-width="0.1" d="M165.729,-221.802C171.236,-221.074 212.878,-215.566 218.062,-214.88"/>
</g>
<!-- 63&#45;&#45;56 -->
<g id="edge92" class="edge"><title>63&#45;&#45;56</title>
<path fill="none" stroke="black" stroke-width="0.1" d="M53.099,-133.225C57.8119,-130.665 93.4533,-111.303 97.8901,-108.893"/>
</g>
<!-- 57&#45;&#45;58 -->
<g id="edge80" class="edge"><title>57&#45;&#45;58</title>
<path fill="none" stroke="black" stroke-width="0.1" d="M163.586,-139.11C166.546,-144.86 188.932,-188.34 191.719,-193.752"/>
</g>
<!-- 58&#45;&#45;60 -->
<g id="edge82" class="edge"><title>58&#45;&#45;60</title>
<path fill="none" stroke="black" stroke-width="0.1" d="M191.717,-195.135C189.089,-202.747 169.219,-260.314 166.746,-267.48"/>
</g>
<!-- 58&#45;&#45;59 -->
<g id="edge83" class="edge"><title>58&#45;&#45;59</title>
<path fill="none" stroke="black" stroke-width="0.1" d="M192.661,-194.812C196.371,-197.673 214.653,-211.773 218.048,-214.391"/>
</g>
<!-- 60&#45;&#45;61 -->
<g id="edge87" class="edge"><title>60&#45;&#45;61</title>
<path fill="none" stroke="black" stroke-width="0.1" d="M167.154,-267.881C171.734,-265.588 198.724,-252.07 203.745,-249.555"/>
</g>
<!-- 59&#45;&#45;3 -->
<g id="edge85" class="edge"><title>59&#45;&#45;3</title>
<path fill="none" stroke="black" stroke-width="0.1" d="M218.497,-214.169C217.638,-208.294 211.141,-163.864 210.332,-158.333"/>
</g>
<!-- 65&#45;&#45;66 -->
<g id="edge96" class="edge"><title>65&#45;&#45;66</title>
<path fill="none" stroke="black" stroke-width="0.1" d="M212.674,-172.542C208.397,-177.791 165.36,-230.605 159.997,-237.186"/>
</g>
<!-- 67 -->
<g id="node52" class="node"><title>67</title>
<ellipse fill="none" stroke="red" cx="301.204" cy="-147.512" rx="0.5" ry="0.5"/>
</g>
<!-- 65&#45;&#45;67 -->
<g id="edge97" class="edge"><title>65&#45;&#45;67</title>
<path fill="none" stroke="black" stroke-width="0.1" d="M213.579,-171.966C220.737,-169.968 293.853,-149.564 300.692,-147.655"/>
</g>
<!-- 9&#45;&#45;26 -->
<g id="edge110" class="edge"><title>9&#45;&#45;26</title>
<path fill="none" stroke="black" stroke-width="0.1" d="M91.3723,-228.088C87.7188,-221.066 60.0893,-167.959 56.6499,-161.349"/>
</g>
<!-- 9&#45;&#45;24 -->
<g id="edge109" class="edge"><title>9&#45;&#45;24</title>
<path fill="none" stroke="black" stroke-width="0.1" d="M91.2224,-229.117C86.1942,-231.529 48.1687,-249.774 43.4351,-252.045"/>
</g>
<!-- 11&#45;&#45;10 -->
<g id="edge114" class="edge"><title>11&#45;&#45;10</title>
<path fill="none" stroke="black" stroke-width="0.1" d="M6.93649,-226.12C12.7103,-231.925 40.657,-215.699 38.4197,-207.823"/>
</g>
<!-- 11&#45;&#45;12 -->
<g id="edge115" class="edge"><title>11&#45;&#45;12</title>
<path fill="none" stroke="black" stroke-width="0.1" d="M5.77989,-225.968C0,-231.837 17.345,-262.559 25.3381,-260.578"/>
</g>
<!-- 12&#45;&#45;11 -->
<g id="edge117" class="edge"><title>12&#45;&#45;11</title>
<path fill="none" stroke="black" stroke-width="0.1" d="M26.7369,-259.78C32.5168,-253.911 15.1717,-223.189 7.17864,-225.17"/>
</g>
<!-- 15&#45;&#45;4 -->
<g id="edge124" class="edge"><title>15&#45;&#45;4</title>
<path fill="none" stroke="black" stroke-width="0.1" d="M74.5029,-241.278C80.2015,-244.81 123.297,-271.52 128.662,-274.845"/>
</g>
<!-- 15&#45;&#45;5 -->
<g id="edge123" class="edge"><title>15&#45;&#45;5</title>
<path fill="none" stroke="black" stroke-width="0.1" d="M73.429,-240.241C69.2778,-234.267 37.8847,-189.089 33.9768,-183.465"/>
</g>
<!-- 17&#45;&#45;18 -->
<g id="edge128" class="edge"><title>17&#45;&#45;18</title>
<path fill="none" stroke="black" stroke-width="0.1" d="M104.793,-142.657C111.112,-148.361 175.646,-206.626 181.682,-212.076"/>
</g>
<!-- 17&#45;&#45;19 -->
<g id="edge129" class="edge"><title>17&#45;&#45;19</title>
<path fill="none" stroke="black" stroke-width="0.1" d="M104.182,-141.549C103.131,-135.507 95.187,-89.8109 94.198,-84.1225"/>
</g>
<!-- 21 -->
<g id="node66" class="node"><title>21</title>
<ellipse fill="none" stroke="red" cx="74.4022" cy="-0.5" rx="0.5" ry="0.5"/>
</g>
<!-- 19&#45;&#45;21 -->
<g id="edge132" class="edge"><title>19&#45;&#45;21</title>
<path fill="none" stroke="black" stroke-width="0.1" d="M93.9713,-83.0115C92.3988,-76.3812 76.5753,-9.66283 74.6035,-1.34894"/>
</g>
<!-- 19&#45;&#45;20 -->
<g id="edge133" class="edge"><title>19&#45;&#45;20</title>
<path fill="none" stroke="black" stroke-width="0.1" d="M94.6428,-83.9347C99.6482,-87.5381 137.501,-114.788 142.213,-118.181"/>
</g>
<!-- 20&#45;&#45;42 -->
<g id="edge135" class="edge"><title>20&#45;&#45;42</title>
<path fill="none" stroke="black" stroke-width="0.1" d="M142.643,-119.392C142.171,-127.33 138.601,-187.357 138.157,-194.829"/>
</g>
<!-- 20&#45;&#45;22 -->
<g id="edge136" class="edge"><title>20&#45;&#45;22</title>
<path fill="none" stroke="black" stroke-width="0.1" d="M143.125,-118.927C147.075,-122.596 176.949,-150.345 180.667,-153.8"/>
</g>
<!-- 22&#45;&#45;42 -->
<g id="edge138" class="edge"><title>22&#45;&#45;42</title>
<path fill="none" stroke="black" stroke-width="0.1" d="M180.565,-154.617C176.143,-158.886 142.7,-191.164 138.537,-195.182"/>
</g>
<!-- 22&#45;&#45;23 -->
<g id="edge139" class="edge"><title>22&#45;&#45;23</title>
<path fill="none" stroke="black" stroke-width="0.1" d="M181.663,-153.582C186.673,-146.37 157.546,-95.1277 148.829,-95.8481"/>
</g>
<!-- 23&#45;&#45;27 -->
<g id="edge144" class="edge"><title>23&#45;&#45;27</title>
<path fill="none" stroke="black" stroke-width="0.1" d="M147.419,-96.7514C143.852,-100.523 126.275,-119.108 123.01,-122.559"/>
</g>
<!-- 23&#45;&#45;34 -->
<g id="edge142" class="edge"><title>23&#45;&#45;34</title>
<path fill="none" stroke="black" stroke-width="0.1" d="M147.218,-96.3371C139.578,-98.6648 81.7957,-116.269 74.6028,-118.46"/>
</g>
<!-- 23&#45;&#45;22 -->
<g id="edge141" class="edge"><title>23&#45;&#45;22</title>
<path fill="none" stroke="black" stroke-width="0.1" d="M147.435,-96.6536C142.426,-103.865 171.552,-155.108 180.269,-154.387"/>
</g>
<!-- 23&#45;&#45;23 -->
<g id="edge143" class="edge"><title>23&#45;&#45;23</title>
<path fill="none" stroke="black" stroke-width="0.1" d="M148.647,-96.4919C154.977,-100.579 166.551,-100.443 166.551,-96.0832 166.551,-91.7239 154.977,-91.5876 148.647,-95.6746"/>
</g>
<!-- 23&#45;&#45;23 -->
<g id="edge145" class="edge"><title>23&#45;&#45;23</title>
<path fill="none" stroke="black" stroke-width="0.1" d="M148.63,-96.4985C160.973,-105.081 184.551,-104.943 184.551,-96.0832 184.551,-87.2239 160.973,-87.0854 148.63,-95.668"/>
</g>
</g>
</svg>
