<?xml version="1.0" encoding="UTF-8" standalone="no"?>
<!DOCTYPE svg PUBLIC "-//W3C//DTD SVG 1.1//EN"
 "http://www.w3.org/Graphics/SVG/1.1/DTD/svg11.dtd">
<!-- Generated by graphviz version 2.34.0 (20140110.0949)
 -->
<!-- Title: phoenix Pages: 1 -->
<svg width="123pt" height="73pt"
 viewBox="0.00 0.00 122.67 73.42" xmlns="http://www.w3.org/2000/svg" xmlns:xlink="http://www.w3.org/1999/xlink">
<g id="graph0" class="graph" transform="scale(1 1) rotate(0) translate(4 69.4209)">
<title>phoenix</title>
<polygon fill="white" stroke="white" points="-4,4 -4,-69.4209 118.672,-69.4209 118.672,4 -4,4"/>
<!-- 0 -->
<g id="node1" class="node"><title>0</title>
<ellipse fill="none" stroke="orange" cx="81.1045" cy="-32.4402" rx="0.5" ry="0.5"/>
</g>
<!-- 1 -->
<g id="node2" class="node"><title>1</title>
<ellipse fill="none" stroke="orange" cx="64.4971" cy="-44.128" rx="0.5" ry="0.5"/>
</g>
<!-- 0&#45;&#45;1 -->
<g id="edge1" class="edge"><title>0&#45;&#45;1</title>
<path fill="none" stroke="black" stroke-width="0.1" d="M80.694,-32.7291C78.4563,-34.3039 67.7338,-41.8501 65.0882,-43.712"/>
</g>
<!-- 2 -->
<g id="node3" class="node"><title>2</title>
<ellipse fill="none" stroke="orange" cx="49.4201" cy="-49.5375" rx="0.5" ry="0.5"/>
</g>
<!-- 0&#45;&#45;2 -->
<g id="edge4" class="edge"><title>0&#45;&#45;2</title>
<path fill="none" stroke="black" stroke-width="0.1" d="M80.3213,-32.8628C75.8996,-35.2488 54.1134,-47.0049 50.0673,-49.1882"/>
</g>
<!-- 3 -->
<g id="node4" class="node"><title>3</title>
<ellipse fill="none" stroke="orange" cx="64.9438" cy="-16.1787" rx="0.5" ry="0.5"/>
</g>
<!-- 0&#45;&#45;3 -->
<g id="edge6" class="edge"><title>0&#45;&#45;3</title>
<path fill="none" stroke="black" stroke-width="0.1" d="M80.705,-32.0382C78.5275,-29.8471 68.0934,-19.348 65.5189,-16.7574"/>
</g>
<!-- 4 -->
<g id="node5" class="node"><title>4</title>
<ellipse fill="none" stroke="orange" cx="34.8804" cy="-32.3513" rx="0.5" ry="0.5"/>
</g>
<!-- 0&#45;&#45;4 -->
<g id="edge8" class="edge"><title>0&#45;&#45;4</title>
<path fill="none" stroke="black" stroke-width="0.1" d="M80.5854,-32.4392C75.9038,-32.4302 41.0113,-32.3631 35.5879,-32.3526"/>
</g>
<!-- 5 -->
<g id="node6" class="node"><title>5</title>
<ellipse fill="none" stroke="orange" cx="80.574" cy="-0.5" rx="0.5" ry="0.5"/>
</g>
<!-- 0&#45;&#45;5 -->
<g id="edge11" class="edge"><title>0&#45;&#45;5</title>
<path fill="none" stroke="black" stroke-width="0.1" d="M81.0914,-31.6507C81.0174,-27.1932 80.6526,-5.2312 80.5848,-1.15249"/>
</g>
<!-- 6 -->
<g id="node8" class="node"><title>6</title>
<ellipse fill="none" stroke="orange" cx="100.798" cy="-4.2268" rx="0.5" ry="0.5"/>
</g>
<!-- 0&#45;&#45;6 -->
<g id="edge13" class="edge"><title>0&#45;&#45;6</title>
<path fill="none" stroke="black" stroke-width="0.1" d="M81.5913,-31.7428C84.3397,-27.8055 97.881,-8.40596 100.396,-4.80316"/>
</g>
<!-- 111611 -->
<g id="node9" class="node"><title>111611</title>
<ellipse fill="none" stroke="orange" cx="114.172" cy="-17.8251" rx="0.5" ry="0.5"/>
</g>
<!-- 0&#45;&#45;111611 -->
<g id="edge18" class="edge"><title>0&#45;&#45;111611</title>
<path fill="none" stroke="black" stroke-width="0.1" d="M81.9219,-32.0789C86.5366,-30.0393 109.274,-19.99 113.496,-18.1237"/>
</g>
<!-- 7 -->
<g id="node10" class="node"><title>7</title>
<ellipse fill="none" stroke="orange" cx="110.658" cy="-52.9023" rx="0.5" ry="0.5"/>
</g>
<!-- 0&#45;&#45;7 -->
<g id="edge15" class="edge"><title>0&#45;&#45;7</title>
<path fill="none" stroke="black" stroke-width="0.1" d="M81.8351,-32.946C85.9595,-35.8016 106.281,-49.8713 110.055,-52.4843"/>
</g>
<!-- 8 -->
<g id="node11" class="node"><title>8</title>
<ellipse fill="none" stroke="orange" cx="97.245" cy="-64.9209" rx="0.5" ry="0.5"/>
</g>
<!-- 0&#45;&#45;8 -->
<g id="edge17" class="edge"><title>0&#45;&#45;8</title>
<path fill="none" stroke="black" stroke-width="0.1" d="M81.5035,-33.2431C83.756,-37.7759 94.8541,-60.1097 96.9152,-64.2574"/>
</g>
<!-- 1&#45;&#45;2 -->
<g id="edge2" class="edge"><title>1&#45;&#45;2</title>
<path fill="none" stroke="black" stroke-width="0.1" d="M63.8493,-44.3604C61.3242,-45.2664 52.1707,-48.5506 49.9217,-49.3575"/>
</g>
<!-- 1&#45;&#45;3 -->
<g id="edge3" class="edge"><title>1&#45;&#45;3</title>
<path fill="none" stroke="black" stroke-width="0.1" d="M64.5082,-43.4371C64.5705,-39.5366 64.8776,-20.3187 64.9347,-16.7497"/>
</g>
<!-- 2&#45;&#45;4 -->
<g id="edge5" class="edge"><title>2&#45;&#45;4</title>
<path fill="none" stroke="black" stroke-width="0.1" d="M50.0024,-48.9603C55.2214,-42.8694 42.3836,-27.7076 35.5247,-31.8856"/>
</g>
<!-- 3&#45;&#45;5 -->
<g id="edge7" class="edge"><title>3&#45;&#45;5</title>
<path fill="none" stroke="black" stroke-width="0.1" d="M65.6154,-15.505C68.2331,-12.8791 77.7225,-3.36033 80.0539,-1.02166"/>
</g>
<!-- 4&#45;&#45;2 -->
<g id="edge10" class="edge"><title>4&#45;&#45;2</title>
<path fill="none" stroke="black" stroke-width="0.1" d="M34.298,-32.9285C29.079,-39.0194 41.9168,-54.1811 48.7758,-50.0031"/>
</g>
<!-- 12 -->
<g id="node7" class="node"><title>12</title>
<ellipse fill="none" stroke="orange" cx="0.5" cy="-26.317" rx="0.5" ry="0.5"/>
</g>
<!-- 4&#45;&#45;12 -->
<g id="edge9" class="edge"><title>4&#45;&#45;12</title>
<path fill="none" stroke="black" stroke-width="0.1" d="M34.0305,-32.2021C29.2326,-31.36 5.59265,-27.2109 1.20234,-26.4403"/>
</g>
<!-- 5&#45;&#45;6 -->
<g id="edge12" class="edge"><title>5&#45;&#45;6</title>
<path fill="none" stroke="black" stroke-width="0.1" d="M81.0739,-0.592124C83.799,-1.09428 96.8565,-3.50047 100.078,-4.09417"/>
</g>
<!-- 6&#45;&#45;111611 -->
<g id="edge14" class="edge"><title>6&#45;&#45;111611</title>
<path fill="none" stroke="black" stroke-width="0.1" d="M101.373,-4.81111C103.613,-7.08856 111.732,-15.3443 113.727,-17.3727"/>
</g>
<!-- 7&#45;&#45;8 -->
<g id="edge16" class="edge"><title>7&#45;&#45;8</title>
<path fill="none" stroke="black" stroke-width="0.1" d="M110.082,-53.4188C107.836,-55.4316 99.6921,-62.7283 97.6913,-64.521"/>
</g>
</g>
</svg>
